<svg id="Layer_1" data-name="Layer 1" xmlns="http://www.w3.org/2000/svg" viewBox="0 0 467.29 105.83"><defs><style>.cls-1{fill:#fff;}.cls-2{fill:#51b848;}.cls-3,.cls-4,.cls-5,.cls-6,.cls-7{fill:none;}.cls-3,.cls-4,.cls-5{stroke:#fff;}.cls-3,.cls-5,.cls-6{stroke-linecap:round;stroke-linejoin:round;}.cls-3{stroke-width:0.5px;}.cls-4,.cls-7{stroke-miterlimit:10;}.cls-4{stroke-width:0.1px;}.cls-5{stroke-width:0.25px;}.cls-6{stroke:#51b848;stroke-width:0.6px;}.cls-7{stroke:#231f20;}.cls-8{fill:#ed2224;}</style></defs><path class="cls-1" d="M508,311.59l1.32-.07,1.3,0,1.27.09,1.27.18,1.3.26,1.22.32,1.22.4,1.2.46,1.15.53,1.15.58,1.08.72,1.06.71,1,.79.93.86.91.87.82,1,.79,1,.69,1,.63,1.09.6,1.13.48,1.14.43,1.2.33,1.18.29,1.2.19,1.25.12,1.25.05,1.22v17.1l-.07.51-.12.51-.22.46-.28.46-.36.39-.41.37-.43.26-.51.23-.5.14-.53.09h-.57l-.53-.09-.5-.14-.51-.23-.45-.26-.41-.37-.34-.39-.28-.46-.22-.46-.12-.51-.07-.51v-1.48l0,0-1,.77-1.06.72-1.1.64-1.15.63-1.15.51-1.22.46-1.23.35-1.24.34-1.28.21-1.29.19-1.3.09H509.1l-1.27-.07-1.3-.14-1.27-.23-1.25-.3-1.22-.35-1.22-.44-1.18-.51-1.15-.58-1.1-.64-1.08-.7-1-.78-1-.81-.91-.88-.84-.95-.82-1-.72-1-.67-1.06-.6-1.14-.53-1.11-.48-1.2-.36-1.18-.28-1.2-.27-1.23-.14-1.22-.07-1.25v-1.25l.09-1.25.17-1.25.24-1.2.31-1.21.41-1.2.48-1.18.53-1.11.6-1.11.69-1,.75-1,.79-1,.88-.9.92-.88,1-.84,1-.76,1.08-.69,1.13-.6,1.12-.58,1.2-.49,1.23-.42,1.22-.37,1.27-.27,1.27-.21ZM523.42,332l0-1-.12-1-.19-1-.29-1-.36-1-.43-.95-.48-.88-.55-.83-.62-.81-.7-.74-.77-.74-.79-.62-.84-.63-.88-.51-.94-.46-1-.39-1-.3-1-.28-1.05-.14-1-.09-1,0-1,.05-1.05.14-1,.21-1,.3-1,.32-.93.44-.91.49-.89.58-.82.6-.74.69-.72.72-.67.81-.6.81-.53.88-.45.88-.41.94-.31,1-.22,1-.14,1-.1,1v1l.1,1,.14,1,.22,1,.31,1,.41,1,.45.88.53.88.6.8.67.81.72.72.74.7.82.6.89.57.91.49.93.44,1,.32,1,.3,1,.21,1.05.14,1,.05,1,0,1-.09,1.05-.16,1-.25,1-.3,1-.42.94-.44.88-.51.84-.62.79-.63.77-.74.7-.76.62-.79.55-.83.48-.88.43-.95.36-.95.29-1,.19-1,.12-1Z" transform="translate(-70.97 -290.4)"/><polygon class="cls-2" points="437.36 28.34 438.39 28.29 439.43 28.32 440.46 28.41 441.51 28.55 442.52 28.82 443.48 29.13 444.46 29.52 445.4 29.98 446.29 30.49 447.12 31.11 447.92 31.74 448.68 32.48 449.38 33.22 450 34.03 450.55 34.86 451.03 35.74 451.46 36.69 451.82 37.64 452.11 38.61 452.31 39.6 452.43 40.6 452.45 41.59 452.43 42.61 452.31 43.6 452.11 44.6 451.82 45.57 451.46 46.52 451.03 47.47 450.55 48.35 450 49.18 449.38 49.97 448.68 50.73 447.92 51.47 447.12 52.09 446.29 52.72 445.4 53.23 444.46 53.67 443.48 54.08 442.52 54.38 441.51 54.64 440.46 54.8 439.43 54.89 438.39 54.92 437.36 54.87 436.31 54.73 435.28 54.52 434.27 54.22 433.29 53.9 432.35 53.46 431.44 52.97 430.55 52.4 429.74 51.79 428.99 51.1 428.27 50.38 427.6 49.57 427 48.76 426.47 47.88 426.02 47.01 425.61 46.06 425.3 45.09 425.08 44.11 424.94 43.12 424.84 42.13 424.84 41.08 424.94 40.09 425.08 39.09 425.3 38.12 425.61 37.15 426.02 36.2 426.47 35.32 427 34.45 427.6 33.64 428.27 32.83 428.99 32.11 429.74 31.41 430.55 30.81 431.44 30.24 432.35 29.75 433.29 29.31 434.27 28.99 435.28 28.69 436.31 28.48 437.36 28.34"/><polygon class="cls-1" points="366.58 61.02 366.23 60.63 365.94 60.17 365.72 59.7 365.6 59.2 365.53 58.69 365.53 26.19 365.6 25.56 365.77 24.92 366.01 24.31 366.3 23.74 366.7 23.18 367.14 22.7 367.64 22.28 368.22 21.91 368.82 21.63 369.44 21.42 370.11 21.28 370.76 21.21 371.45 21.24 372.13 21.33 372.77 21.52 373.37 21.79 373.97 22.12 374.5 22.51 374.98 22.97 375.05 23.07 375.03 23.09 384.74 35.56 384.76 35.53 385.13 36.02 385.61 36.41 386.11 36.78 386.68 37.08 387.24 37.29 387.88 37.45 388.51 37.55 389.13 37.55 389.75 37.45 390.35 37.29 390.95 37.08 391.48 36.78 391.99 36.44 392.46 36.02 392.78 35.65 402.25 23.48 402.56 23.09 402.66 23 403.14 22.56 403.64 22.16 404.19 21.82 404.79 21.54 405.46 21.38 406.09 21.24 406.74 21.21 407.41 21.24 408.08 21.38 408.7 21.59 409.3 21.86 409.85 22.19 410.36 22.58 410.84 23.07 411.22 23.55 411.56 24.13 411.82 24.71 411.96 25.31 412.06 25.96 412.06 25.98 412.06 58.69 412.01 59.2 411.87 59.7 411.65 60.17 411.36 60.63 411.03 61.02 410.62 61.39 410.17 61.65 409.66 61.88 409.16 62.02 408.63 62.11 408.08 62.11 407.53 62.02 407.02 61.88 406.52 61.65 406.09 61.39 405.68 61.02 405.32 60.63 405.06 60.17 404.82 59.7 404.7 59.2 404.65 58.69 404.65 32.39 393.3 46.91 393.3 46.94 392.85 47.4 392.32 47.81 391.75 48.16 391.14 48.46 390.47 48.67 389.83 48.83 389.15 48.92 388.48 48.92 387.79 48.83 387.12 48.67 386.49 48.46 385.89 48.16 385.29 47.81 384.79 47.4 384.31 46.91 384.29 46.94 372.96 32.39 372.96 58.69 372.89 59.2 372.77 59.7 372.56 60.17 372.27 60.63 371.93 61.02 371.53 61.39 371.07 61.65 370.57 61.88 370.06 62.02 369.54 62.11 368.96 62.11 368.43 62.02 367.93 61.88 367.43 61.65 366.99 61.39 366.58 61.02"/><polygon class="cls-1" points="314.11 60.17 313.89 59.7 313.77 59.2 313.7 58.69 313.7 26.86 313.7 25.98 313.72 25.56 313.89 24.92 314.13 24.31 314.42 23.74 314.83 23.18 315.28 22.7 315.79 22.28 316.34 21.91 316.94 21.63 317.56 21.42 318.23 21.28 318.88 21.21 319.58 21.24 320.25 21.33 320.9 21.52 321.5 21.79 322.1 22.12 322.62 22.51 323.1 22.97 323.2 23.09 323.51 23.48 332.89 35.56 332.91 35.53 333.3 36.02 333.77 36.41 334.28 36.78 334.83 37.08 335.41 37.29 336.03 37.45 336.65 37.55 337.3 37.55 337.92 37.45 338.52 37.29 339.12 37.08 339.65 36.78 340.15 36.44 340.63 36.02 340.95 35.65 350.4 23.5 350.37 23.48 350.78 23 351.26 22.56 351.76 22.16 352.34 21.82 352.91 21.54 353.59 21.38 354.21 21.24 354.88 21.21 355.53 21.24 356.2 21.38 356.82 21.59 357.42 21.86 358 22.19 358.5 22.58 358.96 23.07 359.34 23.55 359.68 24.13 359.94 24.71 360.11 25.31 360.18 25.96 360.23 25.98 360.23 58.69 360.16 59.2 360.04 59.7 359.82 60.17 359.53 60.63 359.17 61.02 358.77 61.39 358.33 61.65 357.83 61.88 357.33 62.02 356.8 62.11 356.22 62.11 355.7 62.02 355.19 61.88 354.69 61.65 354.26 61.39 353.85 61.02 353.49 60.63 353.2 60.17 352.99 59.7 352.87 59.2 352.8 58.69 352.8 32.39 341.47 46.94 341.45 46.91 340.97 47.4 340.44 47.81 339.87 48.16 339.27 48.46 338.62 48.67 337.95 48.83 337.3 48.92 336.61 48.92 335.91 48.83 335.24 48.67 334.62 48.46 334.01 48.16 333.42 47.81 332.91 47.4 332.46 46.94 332.46 46.91 321.13 32.39 321.13 58.69 321.06 59.2 320.94 59.7 320.7 60.17 320.44 60.63 320.08 61.02 319.67 61.39 319.24 61.65 318.74 61.88 318.23 62.02 317.71 62.11 317.13 62.11 316.6 62.02 316.1 61.88 315.6 61.65 315.14 61.39 314.73 61.02 314.4 60.63 314.11 60.17"/><path class="cls-1" d="M361.67,311.82l1.29.26,1.23.32,1.22.4,1.2.46,1.17.53,1.13.58,1.11.72,1,.71,1,.79.94.86.91.87.84,1,.77,1,.69,1,.63,1.09.6,1.13.48,1.14.43,1.2.36,1.18.29,1.2.19,1.25.12,1.25,0,1.22h0v17.1h0l-.07.51-.12.51-.22.46-.28.46-.34.39-.41.37-.45.26-.51.23-.5.14-.53.09h-.57l-.53-.09-.51-.14-.5-.23-.43-.26-.41-.37-.36-.39-.26-.46-.24-.46-.12-.51,0-.51v-1.48l0,0-1,.77-1.08.72-1.1.64-1.13.63-1.17.51-1.23.46-1.22.35-1.22.34-1.3.21-1.29.19-1.27.09h-1.3l-1.29-.07-1.3-.14-1.25-.23-1.27-.3-1.22-.35L350,351l-1.15-.51-1.18-.58-1.1-.64-1.08-.7-1-.78-1-.81-.91-.88-.86-.95-.82-1-.72-1-.65-1.06-.6-1.14-.55-1.11-.45-1.2-.39-1.18-.29-1.2-.24-1.23-.16-1.22-.05-1.25v-1.25l.07-1.25.17-1.25.24-1.2.33-1.21.41-1.2.46-1.18.55-1.11.6-1.11.67-1,.77-1,.79-1,.86-.9.91-.88,1-.84,1-.76,1.08-.69,1.13-.6,1.12-.58,1.2-.49,1.23-.42,1.24-.37,1.25-.27,1.29-.21,1.25-.12,1.32-.07,1.3,0,1.29.09ZM371.91,332l-.05-1-.12-1-.19-1-.29-1-.33-1-.44-.95-.47-.88-.58-.83-.62-.81-.7-.74-.74-.74-.79-.62-.87-.63-.86-.51-1-.46-1-.39-1-.3-1-.28-1-.14-1-.09-1.06,0-1,.05-1,.14-1.06.21-1,.3-1,.32-1,.44-.91.49-.87.58-.81.6-.77.69-.72.72L347,324l-.58.81-.55.88-.43.88-.41.94-.31,1-.22,1-.16,1-.1,1v1l.1,1,.16,1,.22,1,.31,1,.41,1,.43.88.55.88.58.8.67.81.72.72.77.7.81.6.87.57.91.49,1,.44,1,.32,1,.3,1.06.21,1,.14,1,.05,1.06,0,1-.09,1-.16,1-.25,1-.3,1-.42,1-.44.86-.51.87-.62.79-.63.74-.74.7-.76.62-.79.58-.83.47-.88.44-.95.33-.95.29-1,.19-1,.12-1Z" transform="translate(-70.97 -290.4)"/><polygon class="cls-2" points="289.98 28.55 290.99 28.82 291.97 29.13 292.93 29.52 293.89 29.98 294.75 30.49 295.62 31.11 296.41 31.74 297.15 32.48 297.85 33.22 298.47 34.03 299.05 34.86 299.53 35.74 299.96 36.69 300.29 37.64 300.58 38.61 300.77 39.6 300.89 40.6 300.94 41.59 300.89 42.61 300.77 43.6 300.58 44.6 300.29 45.57 299.96 46.52 299.53 47.47 299.05 48.35 298.47 49.18 297.85 49.97 297.15 50.73 296.41 51.47 295.62 52.09 294.75 52.72 293.89 53.23 292.93 53.67 291.97 54.08 290.99 54.38 289.98 54.64 288.95 54.8 287.92 54.89 286.86 54.92 285.83 54.87 284.8 54.73 283.74 54.52 282.74 54.22 281.78 53.9 280.82 53.46 279.91 52.97 279.04 52.4 278.23 51.79 277.46 51.1 276.74 50.38 276.07 49.57 275.49 48.76 274.94 47.88 274.51 47.01 274.1 46.06 273.79 45.09 273.57 44.11 273.41 43.12 273.31 42.13 273.31 41.08 273.41 40.09 273.57 39.09 273.79 38.12 274.1 37.15 274.51 36.2 274.94 35.32 275.49 34.45 276.07 33.64 276.74 32.83 277.46 32.11 278.23 31.41 279.04 30.81 279.91 30.24 280.82 29.75 281.78 29.31 282.74 28.99 283.74 28.69 284.8 28.48 285.83 28.34 286.86 28.29 287.92 28.32 288.95 28.41 289.98 28.55"/><polygon class="cls-2" points="248.85 29.01 248.39 28.48 247.98 27.85 247.67 27.23 247.43 26.56 247.24 25.86 247.14 25.17 247.12 24.43 247.17 23.74 247.29 23.04 247.48 22.35 247.77 21.7 248.1 21.08 248.54 20.45 248.99 19.92 249.54 19.43 250.12 18.99 250.77 18.6 251.41 18.3 252.11 18.07 252.83 17.91 253.55 17.81 254.29 17.79 255.03 17.84 255.75 17.98 256.45 18.18 257.15 18.46 257.79 18.79 258.39 19.18 258.97 19.66 259.47 20.17 259.9 20.73 260.29 21.33 260.6 22 260.86 22.67 261.01 23.37 261.1 24.06 261.13 24.5 261.13 24.78 261.08 25.49 260.91 26.19 260.72 26.86 260.41 27.53 260.07 28.13 259.66 28.71 259.16 29.26 258.63 29.75 258.03 30.17 257.39 30.54 256.74 30.84 256.04 31.07 256.02 31.05 256.28 30.81 256.64 30.4 256.93 29.96 257.15 29.47 257.29 28.96 257.39 28.41 257.43 27.85 257.39 27.32 257.27 26.77 257.12 26.26 256.88 25.77 256.62 25.33 256.26 24.94 255.88 24.59 255.44 24.31 255.01 24.11 254.53 23.97 254.05 23.92 253.55 23.94 253.09 24.04 252.64 24.2 252.21 24.43 251.8 24.73 251.46 25.1 251.13 25.52 250.89 26 250.69 26.49 250.57 27.04 250.5 27.58 250.5 28.13 250.6 28.69 250.72 29.2 250.91 29.7 251.2 30.17 251.51 30.58 251.87 30.93 251.2 30.72 250.53 30.37 249.95 29.98 249.38 29.52 249.04 29.2 248.85 29.01"/><polygon class="cls-2" points="223.76 21.79 223.16 21.52 222.51 21.33 221.84 21.24 221.17 21.21 221.12 19.3 221.67 19.25 222.15 19.09 222.66 18.9 223.14 18.6 223.59 18.28 223.62 18.25 224.43 18 225.25 17.68 225.99 17.28 226.76 16.82 227.41 16.33 227.43 16.36 227.96 17.58 228.6 18.74 229.3 19.83 230.09 20.91 230.93 21.91 231.84 22.88 232.83 23.8 233.83 24.64 234.94 25.42 236.06 26.16 237.24 26.79 238.46 27.37 239.71 27.9 240.98 28.32 242.3 28.69 243.62 28.92 244.96 29.13 246.33 29.22 247.67 29.26 249.04 29.2 249.38 29.52 249.95 29.98 250.53 30.37 251.2 30.72 251.87 30.93 251.87 30.95 251.89 30.95 252.28 31.25 252.71 31.51 253.19 31.69 253.64 31.76 254.1 31.81 253.91 33.66 253.24 33.59 252.54 33.64 251.89 33.7 251.22 33.89 250.62 34.17 250.02 34.52 249.5 34.91 249.04 35.35 248.61 35.88 248.61 35.9 245.85 38.93 245.85 38.96 245.44 39.4 244.96 39.81 244.46 40.16 243.91 40.46 243.31 40.67 242.71 40.81 242.08 40.88 241.44 40.88 240.81 40.78 240.21 40.62 239.66 40.39 239.09 40.09 238.58 39.74 238.15 39.33 237.74 38.86 237.74 38.84 225.78 23.48 225.46 23.09 225.37 22.97 224.91 22.51 224.36 22.12 223.76 21.79"/><polygon class="cls-1" points="217.4 61.39 217 61.02 216.66 60.63 216.37 60.17 216.16 59.7 216.04 59.2 215.97 58.69 215.94 58.69 215.94 26.19 215.99 25.56 216.16 24.92 216.4 24.31 216.69 23.74 217.09 23.18 217.55 22.7 218.05 22.28 218.6 21.91 219.2 21.63 219.83 21.42 220.5 21.28 221.17 21.21 221.84 21.24 222.51 21.33 223.16 21.52 223.76 21.79 224.36 22.12 224.91 22.51 225.37 22.97 225.46 23.09 225.78 23.48 237.74 38.84 237.74 38.86 238.15 39.33 238.58 39.74 239.09 40.09 239.66 40.39 240.21 40.62 240.81 40.78 241.44 40.88 242.08 40.88 242.71 40.81 243.31 40.67 243.91 40.46 244.46 40.16 244.96 39.81 245.44 39.4 245.85 38.96 245.85 38.93 248.61 35.9 248.61 35.88 249.04 35.35 249.5 34.91 250.02 34.52 250.62 34.17 251.22 33.89 251.89 33.7 252.54 33.64 253.24 33.59 253.91 33.66 254.56 33.8 255.2 34.03 255.8 34.28 256.35 34.65 256.86 35.07 257.29 35.56 257.72 36.11 257.99 36.69 258.25 37.29 258.39 37.94 258.46 38.56 258.44 39.23 258.44 58.69 258.37 59.2 258.25 59.7 258.03 60.17 257.75 60.63 257.39 61.02 256.98 61.39 256.55 61.65 256.04 61.88 255.54 62.02 255.01 62.11 254.44 62.11 253.91 62.02 253.4 61.88 252.9 61.65 252.44 61.39 252.04 61.02 251.7 60.63 251.41 60.17 251.2 59.7 251.08 59.2 251.01 58.69 251.01 44.18 245.51 50.34 245.47 50.31 245.06 50.8 244.6 51.19 244.05 51.56 243.5 51.82 242.92 52.05 242.3 52.19 241.68 52.26 241.03 52.26 240.41 52.16 239.78 52 239.21 51.77 238.65 51.47 238.15 51.1 237.67 50.71 237.26 50.22 223.4 32.39 223.4 58.69 223.33 59.2 223.21 59.7 222.99 60.17 222.71 60.63 222.34 61.02 221.94 61.39 221.5 61.65 221 61.88 220.5 62.02 219.97 62.11 219.4 62.11 218.87 62.02 218.36 61.88 217.86 61.65 217.4 61.39"/><polygon class="cls-2" points="211.72 10.9 211.6 10.04 211.58 9.23 211.6 8.38 211.72 7.57 211.94 6.74 212.22 5.95 212.56 5.16 212.99 4.45 213.5 3.75 214.02 3.1 214.65 2.5 215.32 1.95 216.04 1.46 216.78 1.07 217.57 0.7 218.39 0.44 219.25 0.21 220.09 0.1 220.98 0.05 221.82 0.07 222.71 0.17 223.54 0.35 224.36 0.58 225.18 0.88 225.97 1.28 226.69 1.74 227.38 2.25 228 2.83 228.58 3.43 229.11 4.14 229.56 4.84 229.97 5.6 230.26 6.39 230.5 7.17 230.67 8.03 230.76 8.84 230.76 9.7 230.67 10.51 230.5 11.36 230.28 12.15 229.97 12.93 229.59 13.7 229.16 14.41 228.65 15.09 228.05 15.73 227.43 16.31 227.41 16.33 226.76 16.82 225.99 17.28 225.25 17.68 224.43 18 223.62 18.25 223.95 17.84 224.31 17.4 224.57 16.89 224.81 16.33 224.96 15.76 225.06 15.18 225.08 14.58 225.06 13.97 224.94 13.35 224.77 12.77 224.53 12.24 224.24 11.75 223.9 11.27 223.5 10.88 223.04 10.53 222.59 10.23 222.08 10.02 221.53 9.9 221 9.83 220.5 9.88 219.97 9.95 219.47 10.13 218.96 10.39 218.51 10.69 218.1 11.08 217.74 11.5 217.4 11.98 217.16 12.52 216.97 13.1 216.85 13.65 216.78 14.28 216.78 14.88 216.88 15.48 217 16.06 217.24 16.64 217.48 17.14 217.84 17.63 218.2 18.09 217.45 17.81 216.66 17.44 215.89 17.03 215.17 16.54 214.53 15.99 213.93 15.39 213.4 14.71 212.92 14.02 212.85 13.9 212.51 13.3 212.15 12.52 211.91 11.73 211.72 10.9"/><path class="cls-2" d="M489.14,337.43l.36,1.18.48,1.2.53,1.11.6,1.14.67,1.06.72,1,.82,1,.84.95.91.88,1,.81,1,.78,1.08.7,1.1.64,1.15.58,1.18.51,1.22.44,1.22.35,1.25.3,1.27.23,1.3.14,1.27.07h1.29l1.3-.09,1.29-.19,1.28-.21,1.24-.34,1.23-.35,1.22-.46,1.15-.51,1.15-.63,1.1-.64,1.06-.72,1-.77,0,0v1.48l.07.51.12.51.22.46.28.46.34.39.41.37.45.26.51.23.5.14.53.09h.57l.53-.09.5-.14.51-.23.43-.26.41-.37.36-.39.28-.46.22-.46.12-.51.07-.51V332l-.05-1.22-.12-1.25-.19-1.25-.29-1.2-.33-1.18-.43-1.2-.48-1.14-.6-1.13-.63-1.09-.69-1-.79-1-.82-1-.91-.87-.93-.86-1-.79-1.06-.71-1.08-.72-1.15-.58-1.15-.53-1.2-.46-1.22-.4-1.22-.32-1.3-.26-1.27-.18-1.27-.09-1.3,0-1.32.07-1.27.12-1.27.21-1.27.27-1.22.37-1.23.42-1.2.49-1.12.58-1.13.6-1.08.69-1,.76-1,.84-.92.88-.88.9-.79,1-.75,1-.69,1-.6,1.11-.53,1.11-.48,1.18-.41,1.2-.31,1.21-.24,1.2-.17,1.25-.09,1.25v1.25l.07,1.25.14,1.22.27,1.23ZM437.19,351l.36.39.41.37.43.26.51.23.5.14.53.09h.57l.53-.09.51-.14.5-.23.46-.26.4-.37.34-.39.29-.46.21-.46.12-.51.07-.51v-26.3l11.32,14.55,0,0,.48.49.5.42.6.34.6.3.62.21.68.16.69.1h.67l.67-.1.65-.16.67-.21.6-.3.58-.34.53-.42.45-.46v0l11.35-14.52v26.3l.05.51.12.51.23.46.27.46.36.39.41.37.43.26.5.23.51.14.55.09h.55l.53-.09.5-.14.5-.23.46-.26.41-.37.33-.39.29-.46.22-.46.14-.51,0-.51V316.36l-.1-.65-.14-.6-.27-.58-.33-.58-.38-.48-.48-.49-.51-.39-.55-.33-.6-.27-.62-.21-.67-.14-.68,0-.64,0-.63.14-.67.16-.6.28-.55.34-.5.4-.48.44-.1.09-.31.39-9.47,12.17-.32.37-.48.42-.5.34-.53.3-.6.21-.6.16-.62.1h-.62l-.63-.1-.65-.16-.55-.21-.57-.3-.51-.37-.48-.39-.36-.49,0,0L446,313.49l0,0-.07-.1-.48-.46-.53-.39-.6-.33-.6-.27-.65-.19-.67-.09-.69,0-.65.07-.67.13-.63.21-.59.28-.58.37-.5.42-.44.48-.4.56-.29.58-.24.6-.17.65-.07.62v32.5l.07.51.12.51.22.46Zm-52.52-33.77v31.83l.07.51.12.51.22.46.28.46.34.39.41.37.45.26.51.23.5.14.53.09h.57l.53-.09.51-.14.5-.23.43-.26.41-.37.36-.39.26-.46.24-.46.12-.51.07-.51v-26.3l11.32,14.52v0l.46.46.5.42.6.34.6.3.63.21.67.16.69.1h.7l.65-.1.67-.16.65-.21.6-.3.57-.34.53-.42.48-.49,0,0,11.32-14.55v26.3l.08.51.12.51.21.46.29.46.36.39.41.37.43.26.5.23.51.14.52.09h.58l.53-.09.5-.14.5-.23.44-.26.4-.37.36-.39.29-.46.22-.46.12-.51.07-.51V316.38l-.05,0-.07-.65-.17-.6-.26-.58-.34-.58-.38-.48-.46-.49-.5-.39-.58-.33-.6-.27-.62-.21-.67-.14-.65,0-.67,0-.63.14-.67.16-.57.28-.58.34-.5.4-.48.44-.41.48,0,0-9.45,12.14-.32.37-.48.42-.5.34-.53.3-.6.21-.6.16-.62.1h-.65l-.62-.1-.62-.16-.58-.21-.55-.3-.51-.37-.48-.39-.38-.49,0,0-9.38-12.08-.31-.39-.1-.12-.48-.46-.53-.39-.6-.33-.6-.27-.64-.19-.67-.09-.7,0-.65.07-.67.13-.62.21-.6.28-.55.37-.51.42-.45.48-.41.56-.29.58-.24.6-.17.65,0,.41,0,.21Zm-14.85,31.81,1.08-.72,1-.77,0,0v1.48l0,.51.12.51.24.46.26.46.36.39.41.37.43.26.5.23.51.14.53.09h.57l.53-.09.5-.14.51-.23.45-.26.41-.37.34-.39.28-.46.22-.46.12-.51.07-.51h0V332h0l0-1.22-.12-1.25-.19-1.25-.29-1.2-.36-1.18-.43-1.2-.48-1.14-.6-1.13-.63-1.09-.69-1-.77-1-.84-1-.91-.87-.94-.86-1-.79-1-.71-1.11-.72-1.13-.58-1.17-.53-1.2-.46-1.22-.4-1.23-.32-1.29-.26-1.25-.18-1.29-.09-1.3,0-1.32.07-1.25.12-1.29.21-1.25.27-1.24.37-1.23.42-1.2.49-1.12.58-1.13.6-1.08.69-1,.76-1,.84-.91.88-.86.9-.79,1-.77,1-.67,1-.6,1.11-.55,1.11-.46,1.18-.41,1.2-.33,1.21-.24,1.2-.17,1.25-.07,1.25v1.25l.05,1.25.16,1.22.24,1.23.29,1.2.39,1.18.45,1.2.55,1.11.6,1.14.65,1.06.72,1,.82,1,.86.95.91.88,1,.81,1,.78,1.08.7,1.1.64,1.18.58L350,351l1.22.44,1.22.35,1.27.3,1.25.23,1.3.14,1.29.07h1.3l1.27-.09,1.29-.19,1.3-.21,1.22-.34,1.22-.35,1.23-.46,1.17-.51,1.13-.63Zm-90.34,10.64V304.33h4.31l0,0,.07.11.48.7.53.67.6.6.64.55.72.49.77.42.79.37.74.27.41.37.48.3.48.24.51.18.52.09.53,0,.05,1.92-.67.07-.67.13-.63.21-.6.28-.55.37-.5.42-.46.48-.41.56-.28.58-.24.6L287,316l0,.62v32.5h0l.08.51.12.51.21.46.29.46.34.39.4.37.46.26.5.23.51.14.52.09h.58l.53-.09.5-.14.5-.23.44-.26.4-.37.36-.39.29-.46.22-.46.12-.51.07-.51v-26.3l13.86,17.83.41.49.48.39.5.37.55.3.58.23.62.17.63.09h.65l.62-.07.62-.14.58-.23L315,342l.55-.37.46-.39.4-.49.05,0,5.49-6.15v14.5l.08.51.12.51.21.46.29.46.34.39.4.37.46.26.5.23.51.14.52.09H326l.53-.09.5-.14.51-.23.43-.26.4-.37.36-.39.29-.46.22-.46.12-.51.07-.51V329.64l0-.68-.07-.62-.14-.65-.27-.6-.26-.58-.43-.55-.43-.49-.51-.41-.55-.37-.6-.26-.65-.23-.64-.14.19-1.85h0l.48-.07L326,322l.45-.21.41-.28.1-.09,0,0,.7-.23.64-.3.65-.37.6-.42.53-.48.5-.56.41-.58.34-.6.31-.67.19-.67.17-.69.05-.72v-.28h0l1-.85,1-.91.89-.95.82-1,.74-1.06.69-1.09.63-1.13.53-1.18.48-1.18.38-1.23h199v55.38Z" transform="translate(-70.97 -290.4)"/><polyline class="cls-3" points="313.7 25.98 313.7 26.86 313.7 58.69"/><polyline class="cls-3" points="332.46 46.94 332.91 47.4 333.42 47.81 334.01 48.16 334.62 48.46 335.24 48.67 335.91 48.83 336.61 48.92 337.3 48.92 337.95 48.83 338.62 48.67 339.27 48.46 339.87 48.16 340.44 47.81 340.97 47.4 341.45 46.91"/><line class="cls-3" x1="360.23" y1="25.98" x2="360.23" y2="58.69"/><polyline class="cls-3" points="352.8 58.69 352.87 59.2 352.99 59.7 353.2 60.17 353.49 60.63 353.85 61.02 354.26 61.39 354.69 61.65 355.19 61.88 355.7 62.02 356.22 62.11 356.8 62.11 357.33 62.02 357.83 61.88 358.33 61.65 358.77 61.39 359.17 61.02 359.53 60.63 359.82 60.17 360.04 59.7 360.16 59.2 360.23 58.69"/><line class="cls-3" x1="321.14" y1="32.39" x2="321.14" y2="58.69"/><polyline class="cls-3" points="332.91 35.53 333.3 36.02 333.77 36.41 334.28 36.78 334.83 37.08 335.41 37.29 336.03 37.45 336.65 37.55 337.3 37.55 337.92 37.45 338.52 37.29 339.12 37.08 339.65 36.78 340.15 36.44 340.63 36.02 340.95 35.65 341.04 35.56"/><line class="cls-3" x1="352.79" y1="32.39" x2="352.79" y2="58.69"/><polyline class="cls-3" points="332.96 35.65 332.89 35.56 323.51 23.48"/><polyline class="cls-3" points="313.7 58.69 313.77 59.2 313.89 59.7 314.11 60.17 314.4 60.63 314.73 61.02 315.14 61.39 315.6 61.65 316.1 61.88 316.6 62.02 317.13 62.11 317.71 62.11 318.23 62.02 318.74 61.88 319.24 61.65 319.67 61.39 320.08 61.02 320.44 60.63 320.7 60.17 320.94 59.7 321.06 59.2 321.13 58.69"/><polyline class="cls-3" points="340.95 35.65 350.4 23.5 350.73 23.09"/><polyline class="cls-3" points="360.18 25.96 360.11 25.31 359.94 24.71 359.68 24.13 359.34 23.55 358.96 23.07 358.5 22.58 358 22.19 357.42 21.86 356.82 21.59 356.2 21.38 355.53 21.24 354.88 21.21 354.21 21.24 353.59 21.38 352.91 21.54 352.34 21.82 351.76 22.16 351.26 22.56 350.78 23 350.37 23.48"/><polyline class="cls-3" points="332.46 46.94 332.46 46.91 321.13 32.39"/><polyline class="cls-3" points="323.51 23.48 323.2 23.09 323.1 22.97 322.62 22.51 322.1 22.12 321.5 21.79 320.9 21.52 320.25 21.33 319.58 21.24 318.88 21.21 318.23 21.28 317.56 21.42 316.94 21.63 316.34 21.91 315.79 22.28 315.28 22.7 314.83 23.18 314.42 23.74 314.13 24.31 313.89 24.92 313.72 25.56 313.7 25.98 313.68 26.19 313.7 26.86"/><line class="cls-3" x1="341.47" y1="46.94" x2="352.79" y2="32.39"/><line class="cls-3" x1="384.29" y1="46.94" x2="372.97" y2="32.39"/><polyline class="cls-3" points="375.39 23.48 375.05 23.07 374.98 22.97 374.5 22.51 373.97 22.12 373.37 21.79 372.77 21.52 372.13 21.33 371.45 21.24 370.76 21.21 370.11 21.28 369.44 21.42 368.82 21.63 368.22 21.91 367.64 22.28 367.14 22.7 366.7 23.18 366.3 23.74 366.01 24.31 365.77 24.92 365.6 25.56 365.53 26.19 365.58 26.86"/><polyline class="cls-3" points="300.94 58.69 300.99 59.2 301.11 59.7 301.35 60.17 301.61 60.63 301.97 61.02 302.38 61.39 302.81 61.65 303.31 61.88 303.82 62.02 304.35 62.11 304.92 62.11 305.45 62.02 305.95 61.88 306.46 61.65 306.91 61.39 307.32 61.02 307.66 60.63 307.94 60.17 308.16 59.7 308.28 59.2 308.35 58.69"/><line class="cls-3" x1="393.3" y1="46.91" x2="404.65" y2="32.39"/><polygon class="cls-3" points="452.45 41.59 452.43 40.6 452.31 39.6 452.11 38.61 451.82 37.64 451.46 36.69 451.03 35.74 450.55 34.86 450 34.03 449.38 33.22 448.68 32.48 447.92 31.74 447.12 31.11 446.29 30.49 445.4 29.98 444.46 29.52 443.48 29.13 442.52 28.82 441.51 28.55 440.46 28.41 439.43 28.32 438.39 28.29 437.36 28.34 436.31 28.48 435.28 28.69 434.27 28.99 433.29 29.31 432.35 29.75 431.44 30.24 430.55 30.81 429.74 31.41 428.99 32.11 428.27 32.83 427.6 33.64 427 34.45 426.47 35.32 426.02 36.2 425.61 37.15 425.3 38.12 425.08 39.09 424.94 40.09 424.84 41.08 424.84 42.13 424.94 43.12 425.08 44.11 425.3 45.09 425.61 46.06 426.02 47.01 426.47 47.88 427 48.76 427.6 49.57 428.27 50.38 428.99 51.1 429.74 51.79 430.55 52.4 431.44 52.97 432.35 53.46 433.29 53.9 434.27 54.22 435.28 54.52 436.31 54.73 437.36 54.87 438.39 54.92 439.43 54.89 440.46 54.8 441.51 54.64 442.52 54.38 443.48 54.08 444.46 53.67 445.4 53.23 446.29 52.72 447.12 52.09 447.92 51.47 448.68 50.73 449.38 49.97 450 49.18 450.55 48.35 451.03 47.47 451.46 46.52 451.82 45.57 452.11 44.6 452.31 43.6 452.43 42.61 452.45 41.59"/><polyline class="cls-3" points="384.81 35.65 384.74 35.56 375.03 23.09"/><polyline class="cls-3" points="365.53 58.69 365.6 59.2 365.72 59.7 365.94 60.17 366.23 60.63 366.58 61.02 366.99 61.39 367.43 61.65 367.93 61.88 368.43 62.02 368.96 62.11 369.54 62.11 370.06 62.02 370.57 61.88 371.07 61.65 371.53 61.39 371.93 61.02 372.27 60.63 372.56 60.17 372.77 59.7 372.89 59.2 372.96 58.69"/><line class="cls-3" x1="392.78" y1="35.65" x2="402.25" y2="23.48"/><polyline class="cls-3" points="412.06 25.96 411.96 25.31 411.82 24.71 411.56 24.13 411.22 23.55 410.84 23.07 410.36 22.58 409.85 22.19 409.3 21.86 408.7 21.59 408.08 21.38 407.41 21.24 406.74 21.21 406.09 21.24 405.46 21.38 404.79 21.54 404.19 21.82 403.64 22.16 403.14 22.56 402.66 23 402.56 23.09 402.25 23.48"/><line class="cls-3" x1="452.45" y1="57.21" x2="452.45" y2="58.69"/><polyline class="cls-3" points="384.76 35.53 385.13 36.02 385.61 36.41 386.11 36.78 386.68 37.08 387.24 37.29 387.88 37.45 388.51 37.55 389.13 37.55 389.75 37.45 390.35 37.29 390.95 37.08 391.48 36.78 391.99 36.44 392.46 36.02 392.78 35.65 392.87 35.56"/><line class="cls-3" x1="404.65" y1="32.39" x2="404.65" y2="58.69"/><line class="cls-3" x1="459.88" y1="41.59" x2="459.88" y2="58.69"/><polyline class="cls-3" points="384.31 46.91 384.79 47.4 385.29 47.81 385.89 48.16 386.49 48.46 387.12 48.67 387.79 48.83 388.48 48.92 389.15 48.92 389.83 48.83 390.47 48.67 391.14 48.46 391.75 48.16 392.32 47.81 392.85 47.4 393.3 46.94 393.3 46.91"/><line class="cls-3" x1="412.06" y1="25.98" x2="412.06" y2="58.69"/><polyline class="cls-3" points="452.45 58.69 452.52 59.2 452.64 59.7 452.86 60.17 453.14 60.63 453.48 61.02 453.89 61.39 454.34 61.65 454.85 61.88 455.35 62.02 455.88 62.11 456.45 62.11 456.98 62.02 457.49 61.88 457.99 61.65 458.42 61.39 458.83 61.02 459.19 60.63 459.48 60.17 459.69 59.7 459.81 59.2 459.88 58.69"/><polyline class="cls-3" points="404.65 58.69 404.7 59.2 404.82 59.7 405.06 60.17 405.32 60.63 405.68 61.02 406.09 61.39 406.52 61.65 407.02 61.88 407.53 62.02 408.08 62.11 408.63 62.11 409.16 62.02 409.66 61.88 410.17 61.65 410.62 61.39 411.03 61.02 411.36 60.63 411.65 60.17 411.87 59.7 412.01 59.2 412.06 58.69"/><polyline class="cls-3" points="459.88 41.59 459.84 40.37 459.72 39.12 459.52 37.87 459.24 36.67 458.9 35.49 458.47 34.28 457.99 33.15 457.39 32.02 456.77 30.93 456.07 29.89 455.28 28.89 454.46 27.92 453.55 27.04 452.62 26.19 451.61 25.4 450.55 24.68 449.47 23.97 448.32 23.39 447.17 22.86 445.97 22.39 444.75 22 443.53 21.68 442.23 21.42 440.96 21.24 439.69 21.14 438.39 21.12 437.07 21.19 435.8 21.31 434.53 21.52 433.26 21.79 432.04 22.16 430.81 22.58 429.62 23.07 428.49 23.64 427.36 24.25 426.28 24.94 425.25 25.7 424.27 26.54 423.36 27.41 422.47 28.32 421.68 29.29 420.93 30.33 420.24 31.37 419.64 32.48 419.11 33.59 418.63 34.77 418.22 35.97 417.91 37.17 417.67 38.38 417.5 39.63 417.41 40.88 417.41 42.13 417.48 43.37 417.62 44.6 417.89 45.83 418.18 47.03 418.54 48.21 419.01 49.41 419.54 50.52 420.14 51.66 420.81 52.72 421.53 53.74 422.35 54.71 423.19 55.66 424.1 56.53 425.08 57.34 426.09 58.13 427.17 58.83 428.27 59.47 429.42 60.05 430.6 60.56 431.82 61 433.05 61.35 434.29 61.65 435.56 61.88 436.86 62.02 438.13 62.09 439.43 62.09 440.72 61.99 442.01 61.81 443.29 61.6 444.53 61.25 445.76 60.91 446.98 60.44 448.13 59.94 449.28 59.31 450.39 58.66 451.44 57.95 452.43 57.18 452.45 57.16"/><line class="cls-3" x1="372.97" y1="32.39" x2="372.97" y2="58.69"/><polyline class="cls-3" points="365.53 25.98 365.53 26.19 365.53 58.69"/><polyline class="cls-4" points="256.04 31.07 256.74 30.84 257.39 30.54 258.03 30.17 258.63 29.75 259.16 29.26 259.66 28.71 260.07 28.13 260.41 27.53 260.72 26.86 260.91 26.19 261.08 25.49 261.13 24.78 261.13 24.5 261.1 24.06 261.01 23.37 260.86 22.67 260.6 22 260.29 21.33 259.9 20.73 259.47 20.17 258.97 19.66 258.39 19.18 257.79 18.79 257.15 18.46 256.45 18.18 255.75 17.98 255.03 17.84 254.29 17.79 253.55 17.81 252.83 17.91 252.11 18.07 251.41 18.3 250.77 18.6 250.12 18.99 249.54 19.43 248.99 19.92 248.54 20.45 248.1 21.08 247.77 21.7 247.48 22.35 247.29 23.04 247.17 23.74 247.12 24.43 247.14 25.17 247.24 25.86 247.43 26.56 247.67 27.23 247.98 27.85 248.39 28.48 248.85 29.01 249.04 29.2 249.38 29.52 249.95 29.98 250.53 30.37 251.2 30.72 251.87 30.93"/><polygon class="cls-4" points="254.1 31.81 254.12 31.81 254.6 31.74 255.06 31.62 255.51 31.41 255.92 31.14 256.02 31.05 256.28 30.81 256.64 30.4 256.93 29.96 257.15 29.47 257.29 28.96 257.39 28.41 257.43 27.85 257.39 27.32 257.27 26.77 257.12 26.26 256.88 25.77 256.62 25.33 256.26 24.94 255.88 24.59 255.44 24.31 255.01 24.11 254.53 23.97 254.05 23.92 253.55 23.94 253.09 24.04 252.64 24.2 252.21 24.43 251.8 24.73 251.46 25.1 251.13 25.52 250.89 26 250.69 26.49 250.57 27.04 250.5 27.58 250.5 28.13 250.6 28.69 250.72 29.2 250.91 29.7 251.2 30.17 251.51 30.58 251.87 30.93 251.87 30.95 251.89 30.95 252.28 31.25 252.71 31.51 253.19 31.69 253.64 31.76 254.1 31.81"/><polyline class="cls-5" points="215.94 25.98 215.94 26.19 215.94 58.69"/><line class="cls-5" x1="245.51" y1="50.34" x2="251.01" y2="44.18"/><polyline class="cls-5" points="215.97 58.69 216.04 59.2 216.16 59.7 216.37 60.17 216.66 60.63 217 61.02 217.4 61.39 217.86 61.65 218.36 61.88 218.87 62.02 219.4 62.11 219.97 62.11 220.5 62.02 221 61.88 221.5 61.65 221.94 61.39 222.34 61.02 222.71 60.63 222.99 60.17 223.21 59.7 223.33 59.2 223.4 58.69"/><polygon class="cls-4" points="221.12 19.3 221.67 19.25 222.15 19.09 222.66 18.9 223.14 18.6 223.59 18.28 223.62 18.25 223.95 17.84 224.31 17.4 224.57 16.89 224.81 16.33 224.96 15.76 225.06 15.18 225.08 14.58 225.06 13.97 224.94 13.35 224.77 12.77 224.53 12.24 224.24 11.75 223.9 11.27 223.5 10.88 223.04 10.53 222.59 10.23 222.08 10.02 221.53 9.9 221 9.83 220.5 9.88 219.97 9.95 219.47 10.13 218.96 10.39 218.51 10.69 218.1 11.08 217.74 11.5 217.4 11.98 217.16 12.52 216.97 13.1 216.85 13.65 216.78 14.28 216.78 14.88 216.88 15.48 217 16.06 217.24 16.64 217.48 17.14 217.84 17.63 218.2 18.09 218.6 18.46 219.08 18.76 219.56 18.99 220.07 19.18 220.59 19.27 221.12 19.3"/><line class="cls-5" x1="251.01" y1="44.18" x2="251.01" y2="58.69"/><line class="cls-5" x1="237.26" y1="50.22" x2="223.4" y2="32.39"/><polyline class="cls-5" points="237.74 38.86 238.15 39.33 238.58 39.74 239.09 40.09 239.66 40.39 240.21 40.62 240.81 40.78 241.44 40.88 242.08 40.88 242.71 40.81 243.31 40.67 243.91 40.46 244.46 40.16 244.96 39.81 245.44 39.4 245.85 38.96"/><polyline class="cls-4" points="223.62 18.25 224.43 18 225.25 17.68 225.99 17.28 226.76 16.82 227.41 16.33 227.43 16.31 228.05 15.73 228.65 15.09 229.16 14.41 229.59 13.7 229.97 12.93 230.28 12.15 230.5 11.36 230.67 10.51 230.76 9.7 230.76 8.84 230.67 8.03 230.5 7.17 230.26 6.39 229.97 5.6 229.56 4.84 229.11 4.14 228.58 3.43 228 2.83 227.38 2.25 226.69 1.74 225.97 1.28 225.18 0.88 224.36 0.58 223.54 0.35 222.71 0.17 221.82 0.07 220.98 0.05 220.09 0.1 219.25 0.21 218.39 0.44 217.57 0.7 216.78 1.07 216.04 1.46 215.32 1.95 214.65 2.5 214.02 3.1 213.5 3.75 212.99 4.45 212.56 5.16 212.22 5.95 211.94 6.74 211.72 7.57 211.6 8.38 211.58 9.23 211.6 10.04 211.72 10.9 211.91 11.73 212.15 12.52 212.51 13.3 212.85 13.9 212.92 14.02 213.4 14.71 213.93 15.39 214.53 15.99 215.17 16.54 215.89 17.03 216.66 17.44 217.45 17.81 218.2 18.09 218.27 18.11"/><line class="cls-5" x1="258.44" y1="39.23" x2="258.44" y2="58.69"/><polyline class="cls-5" points="237.74 38.86 237.74 38.84 225.78 23.48"/><polyline class="cls-5" points="237.26 50.22 237.67 50.71 238.15 51.1 238.65 51.47 239.21 51.77 239.78 52 240.41 52.16 241.03 52.26 241.68 52.26 242.3 52.19 242.92 52.05 243.5 51.82 244.05 51.56 244.6 51.19 245.06 50.8 245.47 50.31"/><polyline class="cls-5" points="225.78 23.48 225.46 23.09 225.37 22.97 224.91 22.51 224.36 22.12 223.76 21.79 223.16 21.52 222.51 21.33 221.84 21.24 221.17 21.21 220.5 21.28 219.83 21.42 219.2 21.63 218.6 21.91 218.05 22.28 217.55 22.7 217.09 23.18 216.69 23.74 216.4 24.31 216.16 24.92 215.99 25.56 215.94 26.19 215.97 26.86"/><line class="cls-5" x1="223.4" y1="32.39" x2="223.4" y2="58.69"/><polyline class="cls-5" points="245.85 38.96 245.85 38.93 248.61 35.9"/><polyline class="cls-5" points="258.44 39.23 258.46 38.56 258.39 37.94 258.25 37.29 257.99 36.69 257.72 36.11 257.29 35.56 256.86 35.07 256.35 34.65 255.8 34.28 255.2 34.03 254.56 33.8 253.91 33.66 253.24 33.59 252.54 33.64 251.89 33.7 251.22 33.89 250.62 34.17 250.02 34.52 249.5 34.91 249.04 35.35 248.61 35.88"/><polyline class="cls-5" points="251.01 58.69 251.08 59.2 251.2 59.7 251.41 60.17 251.7 60.63 252.04 61.02 252.44 61.39 252.9 61.65 253.4 61.88 253.91 62.02 254.44 62.11 255.01 62.11 255.54 62.02 256.04 61.88 256.55 61.65 256.98 61.39 257.39 61.02 257.75 60.63 258.03 60.17 258.25 59.7 258.37 59.2 258.44 58.69"/><line class="cls-3" x1="300.94" y1="57.21" x2="300.94" y2="58.69"/><line class="cls-3" x1="308.38" y1="41.59" x2="308.38" y2="58.69"/><polyline class="cls-3" points="308.35 41.59 308.33 40.37 308.21 39.12 308.02 37.87 307.73 36.67 307.37 35.49 306.94 34.28 306.46 33.15 305.86 32.02 305.23 30.93 304.54 29.89 303.77 28.89 302.93 27.92 302.02 27.04 301.08 26.19 300.08 25.4 299.05 24.68 297.94 23.97 296.82 23.39 295.64 22.86 294.44 22.39 293.22 22 292 21.68 290.7 21.42 289.45 21.24 288.16 21.14 286.86 21.12 285.54 21.19 284.3 21.31 283 21.52 281.75 21.79 280.51 22.16 279.28 22.58 278.08 23.07 276.96 23.64 275.83 24.25 274.75 24.94 273.72 25.7 272.74 26.54 271.82 27.41 270.96 28.32 270.17 29.29 269.4 30.33 268.73 31.37 268.13 32.48 267.58 33.59 267.12 34.77 266.72 35.97 266.38 37.17 266.14 38.38 265.97 39.63 265.9 40.88 265.9 42.13 265.95 43.37 266.12 44.6 266.36 45.83 266.64 47.03 267.03 48.21 267.48 49.41 268.04 50.52 268.63 51.66 269.28 52.72 270 53.74 270.82 54.71 271.68 55.66 272.59 56.53 273.57 57.34 274.56 58.13 275.64 58.83 276.74 59.47 277.92 60.05 279.07 60.56 280.29 61 281.51 61.35 282.79 61.65 284.03 61.88 285.33 62.02 286.62 62.09 287.92 62.09 289.19 61.99 290.48 61.81 291.78 61.6 293 61.25 294.23 60.91 295.45 60.44 296.62 59.94 297.75 59.31 298.85 58.66 299.93 57.95 300.92 57.18 300.94 57.16"/><polygon class="cls-3" points="300.94 41.59 300.89 40.6 300.77 39.6 300.58 38.61 300.29 37.64 299.96 36.69 299.53 35.74 299.05 34.86 298.47 34.03 297.85 33.22 297.15 32.48 296.41 31.74 295.62 31.11 294.75 30.49 293.89 29.98 292.93 29.52 291.97 29.13 290.99 28.82 289.98 28.55 288.95 28.41 287.92 28.32 286.86 28.29 285.83 28.34 284.8 28.48 283.74 28.69 282.74 28.99 281.78 29.31 280.82 29.75 279.91 30.24 279.04 30.81 278.23 31.41 277.46 32.11 276.74 32.83 276.07 33.64 275.49 34.45 274.94 35.32 274.51 36.2 274.1 37.15 273.79 38.12 273.57 39.09 273.41 40.09 273.31 41.08 273.31 42.13 273.41 43.12 273.57 44.11 273.79 45.09 274.1 46.06 274.51 47.01 274.94 47.88 275.49 48.76 276.07 49.57 276.74 50.38 277.46 51.1 278.23 51.79 279.04 52.4 279.91 52.97 280.82 53.46 281.78 53.9 282.74 54.22 283.74 54.52 284.8 54.73 285.83 54.87 286.86 54.92 287.92 54.89 288.95 54.8 289.98 54.64 290.99 54.38 291.97 54.08 292.93 53.67 293.89 53.23 294.75 52.72 295.62 52.09 296.41 51.47 297.15 50.73 297.85 49.97 298.47 49.18 299.05 48.35 299.53 47.47 299.96 46.52 300.29 45.57 300.58 44.6 300.77 43.6 300.89 42.61 300.94 41.59"/><polygon class="cls-2" points="185.46 60.72 185.07 61.12 184.67 61.44 184.19 61.72 183.73 61.92 183.2 62.04 182.65 62.11 168.38 62.11 167.09 62.09 165.77 61.97 164.47 61.79 163.22 61.51 161.95 61.14 160.73 60.72 159.53 60.24 158.38 59.68 157.25 59.06 156.15 58.34 155.09 57.6 154.13 56.77 153.18 55.89 152.31 54.98 151.5 53.99 150.73 52.95 150.03 51.89 149.43 50.78 148.88 49.64 148.4 48.46 148.02 47.24 147.71 46.03 147.47 44.78 147.3 43.54 147.2 42.31 147.2 41.04 147.3 39.79 147.47 38.54 147.71 37.29 148.02 36.09 148.4 34.86 148.88 33.68 149.43 32.57 150.03 31.44 150.73 30.37 151.5 29.36 152.31 28.34 153.18 27.44 154.13 26.56 155.09 25.73 156.15 24.98 157.25 24.29 158.38 23.64 159.53 23.09 160.73 22.6 161.95 22.19 163.22 21.82 164.47 21.54 165.77 21.38 167.09 21.24 168.38 21.21 182.65 21.21 183.2 21.28 183.73 21.4 184.19 21.61 184.67 21.89 185.07 22.21 185.46 22.6 185.75 23.04 185.96 23.53 186.1 24.01 186.2 24.52 186.2 25.08 186.1 25.59 185.96 26.07 185.75 26.56 185.46 26.97 185.07 27.37 184.67 27.71 184.19 27.99 183.73 28.2 183.2 28.32 182.65 28.39 182.65 28.41 168.38 28.41 167.35 28.43 166.29 28.55 165.26 28.73 164.25 29.01 163.25 29.36 162.31 29.77 161.4 30.26 160.51 30.81 159.67 31.41 158.88 32.09 158.16 32.8 157.49 33.59 156.87 34.42 156.32 35.26 155.86 36.18 155.48 37.1 155.14 38.08 175.19 38.08 175.74 38.15 176.27 38.26 176.75 38.47 177.21 38.75 177.62 39.09 178 39.49 178.29 39.9 178.5 40.39 178.67 40.88 178.77 41.38 178.77 41.94 178.67 42.45 178.5 42.93 178.29 43.42 178 43.86 177.62 44.25 177.21 44.58 176.75 44.85 176.27 45.06 175.74 45.18 175.19 45.25 155.14 45.25 155.48 46.22 155.86 47.14 156.32 48.07 156.87 48.92 157.49 49.73 158.16 50.52 158.88 51.26 159.67 51.91 160.51 52.53 161.4 53.07 162.31 53.55 163.25 53.99 164.25 54.31 165.26 54.59 166.29 54.78 167.35 54.89 168.38 54.92 168.38 54.96 182.65 54.96 183.2 55.01 183.73 55.12 184.19 55.35 184.67 55.61 185.07 55.96 185.46 56.35 185.75 56.77 185.96 57.25 186.1 57.74 186.2 58.27 186.2 58.8 186.1 59.31 185.96 59.8 185.75 60.28 185.46 60.72"/><path class="cls-2" d="M210.59,330.19l.1,1.25v1.27l-.1,1.23-.14,1.25-.27,1.25-.31,1.2-.38,1.22L209,340l-.55,1.14-.6,1.11-.7,1.06-.74,1-.82,1-.88.9-1,.88-1,.83-1,.74-1.11.72-1.15.62-1.15.56-1.2.48-1.22.42-1.27.37-1.25.28-1.3.18-1.31.12-1.3,0H167.76l-.55-.07-.53-.11-.46-.21-.48-.28-.41-.32-.38-.4-.29-.44-.21-.48-.15-.49-.09-.51v-.53l.09-.53.15-.49.21-.48.29-.42.38-.39.41-.35.48-.25.46-.23.53-.12.55-.05h4.84v-1l-.77-1-.64-1.07-.65-1.08L170,340l-.45-1.18-.39-1.2-.36-1.2-.21-1.25-.15-1.25-.09-1.23v-1.27l.09-1.25.15-1.25.21-1.25.36-1.2.39-1.18.45-1.2.53-1.14.65-1.11.64-1.06.77-1,.82-1h-5.66v0l-.55-.07-.53-.12-.46-.21-.48-.27-.41-.35-.38-.39-.29-.42-.21-.49-.15-.48-.09-.51v-.56l.09-.5.15-.49.21-.49L165,313l.38-.39.41-.32.48-.28.46-.21.53-.11.55-.07h21.75l1.3,0,1.31.14,1.3.16,1.25.28,1.27.37,1.22.41,1.2.49,1.15.56,1.15.64,1.11.7,1,.74,1,.83,1,.88.88.9.82,1,.74,1,.7,1.06.6,1.13.55,1.11.48,1.18.38,1.23.31,1.2.27,1.25Zm-7.34,1.87,0-1-.12-1-.19-1-.29-1-.34-.95-.4-.94-.51-.88-.57-.86-.63-.79-.67-.74-.74-.71-.79-.65-.84-.58-.89-.53-.94-.44-.95-.39-1-.35-1-.23-1-.16-1-.1-1,0-1,.07-1.06.12-1,.2-1,.28-1,.37-1,.42-.91.48-.86.54-.84.64-.75.67-.72.72-.67.79-.55.83-.55.88-.46.88-.38.95-.31,1-.22,1-.17,1-.09,1v1l.09,1,.17,1,.22,1,.31,1,.38.92.46.88.55.88.55.83.67.79.72.71.75.68.84.64.86.53.91.49,1,.44,1,.35,1,.27,1,.21,1.06.14,1,.05,1,0,1-.09,1-.16,1-.23,1-.32.95-.42.94-.44.89-.51.84-.58.79-.67.74-.69.67-.77.63-.78.57-.86.51-.88.4-.95.34-.92.29-1,.19-1,.12-1Z" transform="translate(-70.97 -290.4)"/><polygon class="cls-2" points="55.3 22.21 55.8 22.6 56.23 23.09 56.28 23.09 78.34 51.49 78.34 24.64 78.42 24.13 78.54 23.62 78.75 23.16 79.04 22.7 79.4 22.3 79.81 21.95 80.24 21.68 80.74 21.47 81.25 21.31 81.77 21.21 82.35 21.21 82.88 21.31 83.38 21.47 83.89 21.68 84.32 21.95 84.72 22.3 85.08 22.7 85.37 23.16 85.59 23.62 85.71 24.13 85.78 24.64 85.78 56.93 85.68 57.55 85.52 58.2 85.3 58.8 85.01 59.38 84.65 59.89 84.2 60.38 83.69 60.84 83.17 61.21 82.59 61.53 81.97 61.79 81.34 61.97 80.67 62.04 80.02 62.09 79.33 62.02 78.7 61.9 78.03 61.72 77.43 61.44 76.88 61.12 76.33 60.72 75.87 60.26 54.19 32.39 54.19 58.69 54.12 59.2 54 59.7 53.78 60.17 53.5 60.63 53.16 61.02 52.75 61.39 52.3 61.65 51.79 61.88 51.29 62.02 50.76 62.11 50.19 62.11 49.66 62.02 49.16 61.88 48.65 61.65 48.22 61.39 47.81 61.02 47.45 60.63 47.19 60.17 46.95 59.7 46.83 59.2 46.76 58.69 46.76 25.98 46.76 25.96 46.85 25.31 47.02 24.71 47.31 24.11 47.62 23.55 48.03 23.04 48.51 22.58 49.01 22.16 49.59 21.82 50.19 21.54 50.84 21.38 51.48 21.24 52.15 21.21 52.8 21.24 53.47 21.4 54.1 21.59 54.72 21.86 55.3 22.21"/><path class="cls-2" d="M110.22,349.6l-.12.51-.22.46-.28.46-.36.39-.41.37-.43.26-.51.23-.5.14-.53.09h-.57l-.53-.09-.51-.14-.5-.23-.45-.26-.41-.37-.34-.39-.29-.46-.21-.46-.12-.51-.07-.51v-3.86l-1,.69-1,.67-1.11.58-1.1.53-1.15.44-1.18.37-1.19.3-1.23.21-1.22.16-1.22.09H90.14l-1.22-.09L87.7,349l-1.23-.21-1.19-.3-1.18-.37L83,347.7l-1.1-.53-1.11-.58-1-.67-1-.69v3.86l-.07.51-.12.51-.21.46L78,351l-.34.39-.4.37-.46.26-.5.23-.51.14-.53.09H74.7l-.53-.09-.5-.14-.51-.23-.43-.26-.41-.37L72,351l-.28-.46-.22-.46-.12-.51-.07-.51V330.47l0-1.23.12-1.18.19-1.22.29-1.14.36-1.15.4-1.16.51-1.09.6-1.06.62-1,.74-1,.77-.94.87-.88.88-.84.94-.81,1-.71,1-.65,1.08-.6,1.13-.51,1.17-.46,1.2-.37,1.18-.3,1.24-.24,1.23-.16,1.24-.09h1.28l1.24.09,1.23.16,1.22.24,1.2.3,1.2.37,1.17.46,1.13.51,1.06.6,1.07.65,1,.71.94.81.88.84.87.88.77.94.72,1,.64,1,.6,1.06.51,1.09.4,1.16.36,1.15.29,1.14.19,1.22.12,1.18.05,1.23v18.62Zm-7.39-19.13,0-1-.12-.95-.19-.9-.26-.9-.36-.88-.41-.83-.48-.81-.55-.79-.6-.74-.7-.67-.71-.6-.77-.58-.82-.51-.86-.44-.89-.35-.91-.3-1-.23-1-.14-1-.09h-.94l-1,.09-1,.14-.94.23-.91.3-.89.35-.84.44-.84.51-.76.58-.72.6-.7.67-.6.74-.55.79-.48.81-.41.83-.36.88-.26.9-.19.9-.15.95,0,1,0,.92.15.95.19.9.26.93.36.88.41.81.48.81.55.81.6.71.7.67.72.61.76.57.84.51.84.44.89.35.91.32.94.21,1,.14,1,.09h.94l1-.09,1-.14,1-.21.91-.32L96,341l.86-.44.82-.51.77-.57.71-.61.7-.67.6-.71.55-.81.48-.81.41-.81.36-.88.26-.93.19-.9.12-.95Z" transform="translate(-70.97 -290.4)"/><line class="cls-6" x1="7.74" y1="54.82" x2="7.74" y2="58.69"/><polyline class="cls-6" points="7.74 54.82 8.74 55.52 9.77 56.19 10.88 56.77 11.98 57.3 13.13 57.74 14.31 58.11 15.51 58.41 16.73 58.62 17.95 58.78 19.18 58.87 20.45 58.87 21.67 58.78 22.89 58.62 24.12 58.41 25.32 58.11 26.49 57.74 27.64 57.3 28.75 56.77 29.85 56.19 30.88 55.52 31.89 54.82"/><polyline class="cls-6" points="168.38 28.41 167.35 28.43 166.29 28.55 165.26 28.73 164.25 29.01 163.25 29.36 162.31 29.77 161.4 30.26 160.51 30.81 159.67 31.41 158.88 32.09 158.16 32.8 157.49 33.59 156.87 34.42 156.32 35.26 155.86 36.18 155.48 37.1 155.14 38.08"/><polyline class="cls-6" points="175.19 45.25 175.74 45.18 176.27 45.06 176.75 44.85 177.21 44.58 177.62 44.25 178 43.86 178.29 43.42 178.5 42.93 178.67 42.45 178.77 41.94 178.77 41.38 178.67 40.88 178.5 40.39 178.29 39.9 178 39.49 177.62 39.09 177.21 38.75 176.75 38.47 176.27 38.26 175.74 38.15 175.19 38.08"/><line class="cls-6" x1="168.38" y1="28.41" x2="182.65" y2="28.41"/><line class="cls-6" x1="39.32" y1="40.07" x2="39.32" y2="58.69"/><polyline class="cls-6" points="0.3 58.69 0.37 59.2 0.49 59.7 0.71 60.17 1 60.63 1.35 61.02 1.76 61.39 2.19 61.65 2.7 61.88 3.2 62.02 3.73 62.11 4.3 62.11 4.83 62.02 5.34 61.88 5.84 61.65 6.3 61.39 6.7 61.02 7.04 60.63 7.33 60.17 7.54 59.7 7.66 59.2 7.74 58.69"/><polyline class="cls-6" points="7.76 40.07 7.78 40.99 7.93 41.94 8.12 42.84 8.38 43.77 8.74 44.65 9.15 45.46 9.63 46.27 10.18 47.08 10.78 47.79 11.48 48.46 12.2 49.06 12.96 49.64 13.8 50.15 14.64 50.59 15.53 50.94 16.44 51.26 17.38 51.47 18.36 51.61 19.34 51.7 20.28 51.7 21.26 51.61 22.22 51.47 23.18 51.26 24.09 50.94 24.98 50.59 25.84 50.15 26.66 49.64 27.43 49.06 28.15 48.46 28.84 47.79 29.44 47.08 29.99 46.27 30.47 45.46 30.88 44.65 31.24 43.77 31.5 42.84 31.7 41.94 31.82 40.99 31.86 40.07"/><line class="cls-6" x1="167.3" y1="28.41" x2="167.35" y2="28.43"/><polyline class="cls-6" points="155.14 45.25 155.48 46.22 155.86 47.14 156.32 48.07 156.87 48.92 157.49 49.73 158.16 50.52 158.88 51.26 159.67 51.91 160.51 52.53 161.4 53.07 162.31 53.55 163.25 53.99 164.25 54.31 165.26 54.59 166.29 54.78 167.35 54.89 168.38 54.92"/><polyline class="cls-6" points="182.65 62.11 183.2 62.04 183.73 61.92 184.19 61.72 184.67 61.44 185.07 61.12 185.46 60.72 185.75 60.28 185.96 59.8 186.1 59.31 186.2 58.8 186.2 58.27 186.1 57.74 185.96 57.25 185.75 56.77 185.46 56.35 185.07 55.96 184.67 55.61 184.19 55.35 183.73 55.12 183.2 55.01 182.65 54.96"/><line class="cls-6" x1="31.89" y1="54.82" x2="31.89" y2="58.69"/><polyline class="cls-6" points="31.89 58.69 31.96 59.2 32.08 59.7 32.3 60.17 32.58 60.63 32.92 61.02 33.33 61.39 33.78 61.65 34.28 61.88 34.79 62.02 35.32 62.11 35.89 62.11 36.42 62.02 36.92 61.88 37.43 61.65 37.86 61.39 38.27 61.02 38.63 60.63 38.91 60.17 39.13 59.7 39.25 59.2 39.32 58.69"/><polyline class="cls-6" points="39.32 40.07 39.27 38.84 39.15 37.66 38.96 36.44 38.67 35.3 38.31 34.15 37.91 32.99 37.4 31.9 36.8 30.84 36.16 29.8 35.44 28.8 34.67 27.85 33.81 26.97 32.92 26.14 31.98 25.33 30.98 24.61 29.9 23.97 28.84 23.37 27.71 22.86 26.54 22.39 25.34 22.02 24.14 21.72 22.92 21.49 21.69 21.33 20.45 21.24 19.18 21.24 17.93 21.33 16.7 21.49 15.46 21.72 14.28 22.02 13.08 22.39 11.91 22.86 10.78 23.37 9.7 23.97 8.65 24.61 7.64 25.33 6.7 26.14 5.82 26.97 4.95 27.85 4.18 28.8 3.44 29.8 2.82 30.84 2.22 31.9 1.72 32.99 1.31 34.15 0.95 35.3 0.66 36.44 0.47 37.66 0.35 38.84 0.3 40.07"/><line class="cls-6" x1="155.14" y1="45.25" x2="175.19" y2="45.25"/><polyline class="cls-6" points="182.65 28.39 183.2 28.32 183.73 28.2 184.19 27.99 184.67 27.71 185.07 27.37 185.46 26.97 185.75 26.56 185.96 26.07 186.1 25.59 186.2 25.08 186.2 24.52 186.1 24.01 185.96 23.53 185.75 23.04 185.46 22.6 185.07 22.21 184.67 21.89 184.19 21.61 183.73 21.4 183.2 21.28 182.65 21.21"/><line class="cls-6" x1="168.38" y1="62.11" x2="182.65" y2="62.11"/><line class="cls-6" x1="0.3" y1="40.07" x2="0.3" y2="58.69"/><polyline class="cls-6" points="31.86 40.07 31.82 39.12 31.7 38.17 31.5 37.27 31.24 36.37 30.88 35.49 30.47 34.65 29.99 33.84 29.44 33.06 28.84 32.32 28.15 31.65 27.43 31.05 26.66 30.47 25.84 29.96 24.98 29.52 24.09 29.17 23.18 28.87 22.22 28.64 21.26 28.5 20.28 28.41 19.34 28.41 18.36 28.5 17.38 28.64 16.44 28.87 15.53 29.17 14.64 29.52 13.8 29.96 12.96 30.47 12.2 31.05 11.48 31.65 10.78 32.32 10.18 33.06 9.63 33.84 9.15 34.65 8.74 35.49 8.38 36.37 8.12 37.27 7.93 38.17 7.78 39.12 7.76 40.07"/><polyline class="cls-6" points="168.38 21.21 167.09 21.24 165.77 21.38 164.47 21.54 163.22 21.82 161.95 22.19 160.73 22.6 159.53 23.09 158.38 23.64 157.25 24.29 156.15 24.98 155.09 25.73 154.13 26.56 153.18 27.44 152.31 28.34 151.5 29.36 150.73 30.37 150.03 31.44 149.43 32.57 148.88 33.68 148.4 34.86 148.02 36.09 147.71 37.29 147.47 38.54 147.3 39.79 147.2 41.04 147.2 42.31 147.3 43.54 147.47 44.78 147.71 46.03 148.02 47.24 148.4 48.46 148.88 49.64 149.43 50.78 150.03 51.89 150.73 52.95 151.5 53.99 152.31 54.98 153.18 55.89 154.13 56.77 155.09 57.6 156.15 58.34 157.25 59.06 158.38 59.68 159.53 60.24 160.73 60.72 161.95 61.14 163.22 61.51 164.47 61.79 165.77 61.97 167.09 62.09 168.38 62.11"/><line class="cls-6" x1="155.14" y1="38.08" x2="175.19" y2="38.08"/><line class="cls-6" x1="168.38" y1="21.21" x2="182.65" y2="21.21"/><line class="cls-6" x1="168.38" y1="54.96" x2="182.65" y2="54.96"/><polyline class="cls-6" points="102.45 54.96 101.63 54.96 96.79 54.96"/><line class="cls-6" x1="46.76" y1="25.98" x2="46.76" y2="58.69"/><polyline class="cls-6" points="75.87 60.26 76.33 60.72 76.88 61.12 77.43 61.44 78.03 61.72 78.7 61.9 79.33 62.02 80.02 62.09 80.67 62.04 81.34 61.97 81.97 61.79 82.59 61.53 83.17 61.21 83.69 60.84 84.2 60.38 84.65 59.89 85.01 59.38 85.3 58.8 85.52 58.2 85.68 57.55 85.78 56.93"/><line class="cls-6" x1="118.54" y1="62.11" x2="96.79" y2="62.11"/><polyline class="cls-6" points="102.45 28.41 101.63 29.38 100.86 30.4 100.22 31.46 99.57 32.57 99.04 33.7 98.59 34.91 98.2 36.09 97.84 37.29 97.63 38.54 97.48 39.79 97.39 41.04 97.39 42.31 97.48 43.54 97.63 44.78 97.84 46.03 98.2 47.24 98.59 48.44 99.04 49.62 99.57 50.78 100.22 51.86 100.86 52.93 101.63 53.95 102.45 54.92"/><line class="cls-6" x1="75.87" y1="60.26" x2="54.19" y2="32.39"/><polygon class="cls-6" points="132.28 41.66 132.26 40.67 132.14 39.67 131.95 38.7 131.66 37.73 131.32 36.78 130.92 35.83 130.41 34.95 129.84 34.1 129.22 33.31 128.54 32.57 127.8 31.86 127.01 31.21 126.17 30.63 125.28 30.1 124.35 29.66 123.39 29.26 122.38 28.92 121.37 28.69 120.36 28.52 119.33 28.43 118.3 28.41 117.27 28.48 116.22 28.59 115.21 28.8 114.2 29.08 113.24 29.45 112.28 29.86 111.37 30.35 110.51 30.88 109.67 31.53 108.92 32.2 108.2 32.92 107.53 33.7 106.98 34.54 106.43 35.42 105.97 36.3 105.59 37.24 105.28 38.22 105.06 39.19 104.89 40.16 104.8 41.15 104.8 42.17 104.89 43.19 105.06 44.16 105.28 45.13 105.59 46.1 105.97 47.03 106.43 47.91 106.98 48.79 107.53 49.62 108.2 50.41 108.92 51.12 109.67 51.79 110.51 52.44 111.37 52.97 112.28 53.46 113.24 53.9 114.2 54.24 115.21 54.52 116.22 54.73 117.27 54.87 118.3 54.92 119.33 54.89 120.36 54.8 121.37 54.64 122.38 54.41 123.39 54.08 124.35 53.67 125.28 53.23 126.17 52.72 127.01 52.14 127.8 51.47 128.54 50.78 129.22 50.01 129.84 49.23 130.41 48.37 130.92 47.49 131.32 46.54 131.66 45.62 131.95 44.65 132.14 43.67 132.26 42.66 132.28 41.66"/><line class="cls-6" x1="78.34" y1="51.49" x2="56.28" y2="23.09"/><polyline class="cls-6" points="96.79 54.96 96.24 55.01 95.71 55.12 95.25 55.35 94.77 55.61 94.37 55.96 93.98 56.35 93.69 56.77 93.48 57.25 93.33 57.74 93.24 58.27 93.24 58.8 93.33 59.31 93.48 59.8 93.69 60.28 93.98 60.72 94.37 61.12 94.77 61.44 95.25 61.72 95.71 61.92 96.24 62.04 96.79 62.11"/><line class="cls-6" x1="54.19" y1="32.39" x2="54.19" y2="58.69"/><polyline class="cls-6" points="118.54 62.11 119.84 62.09 121.16 61.97 122.45 61.79 123.7 61.51 124.97 61.14 126.19 60.72 127.39 60.24 128.54 59.68 129.69 59.06 130.8 58.34 131.83 57.6 132.79 56.77 133.75 55.89 134.63 54.98 135.45 53.99 136.19 52.95 136.89 51.89 137.49 50.78 138.04 49.64 138.52 48.46 138.9 47.24 139.22 46.03 139.48 44.78 139.62 43.54 139.72 42.31 139.72 41.04 139.62 39.79 139.48 38.54 139.22 37.29 138.9 36.09 138.52 34.86 138.04 33.68 137.49 32.57 136.89 31.44 136.19 30.37 135.45 29.36 134.63 28.34 133.75 27.44 132.79 26.56 131.83 25.73 130.8 24.98 129.69 24.29 128.54 23.64 127.39 23.09 126.19 22.6 124.97 22.19 123.7 21.82 122.45 21.54 121.16 21.38 119.84 21.24 118.54 21.21"/><polyline class="cls-6" points="96.79 21.21 96.24 21.28 95.71 21.4 95.25 21.61 94.77 21.89 94.37 22.21 93.98 22.6 93.69 23.04 93.48 23.53 93.33 24.01 93.24 24.52 93.24 25.08 93.33 25.59 93.48 26.07 93.69 26.56 93.98 26.97 94.37 27.37 94.77 27.71 95.25 27.99 95.71 28.2 96.24 28.32 96.79 28.39"/><line class="cls-6" x1="102.45" y1="28.41" x2="96.79" y2="28.41"/><line class="cls-6" x1="118.54" y1="21.21" x2="96.79" y2="21.21"/><polyline class="cls-6" points="85.78 24.64 85.71 24.13 85.59 23.62 85.37 23.16 85.08 22.7 84.72 22.3 84.32 21.95 83.89 21.68 83.38 21.47 82.88 21.31 82.35 21.21 81.77 21.21 81.25 21.31 80.74 21.47 80.24 21.68 79.81 21.95 79.4 22.3 79.04 22.7 78.75 23.16 78.54 23.62 78.42 24.13 78.34 24.64"/><line class="cls-6" x1="78.34" y1="24.64" x2="78.34" y2="51.49"/><line class="cls-6" x1="85.78" y1="24.64" x2="85.78" y2="56.93"/><polyline class="cls-6" points="56.23 23.09 55.8 22.6 55.3 22.21 54.72 21.86 54.1 21.59 53.47 21.4 52.8 21.24 52.15 21.21 51.48 21.24 50.84 21.38 50.19 21.54 49.59 21.82 49.01 22.16 48.51 22.58 48.03 23.04 47.62 23.55 47.31 24.11 47.02 24.71 46.85 25.31 46.76 25.96"/><polyline class="cls-6" points="46.76 58.69 46.83 59.2 46.95 59.7 47.19 60.17 47.45 60.63 47.81 61.02 48.22 61.39 48.65 61.65 49.16 61.88 49.66 62.02 50.19 62.11 50.76 62.11 51.29 62.02 51.79 61.88 52.3 61.65 52.75 61.39 53.16 61.02 53.5 60.63 53.78 60.17 54 59.7 54.12 59.2 54.19 58.69"/><line class="cls-7" x1="43.21" y1="76.15" x2="424.4" y2="76.15"/><path class="cls-8" d="M151.26,377.22a1,1,0,0,1-.74-.28,1,1,0,0,1-.29-.72.94.94,0,0,1,.29-.71,1,1,0,0,1,.74-.28h11.48a1,1,0,0,1,.74.28.94.94,0,0,1,.29.71,1,1,0,0,1-.29.72,1,1,0,0,1-.74.28ZM157,391.39a1.08,1.08,0,0,1-.79-.31,1,1,0,0,1-.32-.77V375.23h2.23v15.08a1,1,0,0,1-.33.77A1.06,1.06,0,0,1,157,391.39Z" transform="translate(-70.97 -290.4)"/><path class="cls-8" d="M167.12,387.27a1.09,1.09,0,0,1-.79-.3,1,1,0,0,1-.31-.75v-9.94a1,1,0,0,1,.31-.76,1.13,1.13,0,0,1,.79-.29,1.1,1.1,0,0,1,.79.29,1,1,0,0,1,.3.76v9.94a1,1,0,0,1-.3.75A1.06,1.06,0,0,1,167.12,387.27Zm0,4.14a1.09,1.09,0,0,1-.79-.3,1,1,0,0,1-.31-.76v-9.22a1,1,0,0,1,.31-.77,1.13,1.13,0,0,1,.79-.29,1.1,1.1,0,0,1,.79.29,1,1,0,0,1,.3.77v9.22a1,1,0,0,1-.3.76A1.06,1.06,0,0,1,167.12,391.41Zm8.81,0a1.09,1.09,0,0,1-.78-.3,1,1,0,0,1-.31-.76v-5.09a3.69,3.69,0,0,0-.45-1.92,2.76,2.76,0,0,0-1.21-1.11,4.05,4.05,0,0,0-1.75-.36,3.75,3.75,0,0,0-1.63.35,3.11,3.11,0,0,0-1.16.94,2.25,2.25,0,0,0-.43,1.36h-1.35a4.28,4.28,0,0,1,.65-2.33,4.71,4.71,0,0,1,1.8-1.62,5.33,5.33,0,0,1,2.55-.6,5.6,5.6,0,0,1,2.65.61,4.41,4.41,0,0,1,1.84,1.79,5.72,5.72,0,0,1,.68,2.89v5.09a1,1,0,0,1-.31.76A1.09,1.09,0,0,1,175.93,391.41Z" transform="translate(-70.97 -290.4)"/><path class="cls-8" d="M186.19,391.47a6.61,6.61,0,0,1-3.16-.73,5.45,5.45,0,0,1-2.17-2,5.63,5.63,0,0,1-.78-3,5.84,5.84,0,0,1,.74-3,5.31,5.31,0,0,1,2-2,6.07,6.07,0,0,1,3-.73,5.58,5.58,0,0,1,2.87.71,4.73,4.73,0,0,1,1.84,2,6.3,6.3,0,0,1,.63,2.88.85.85,0,0,1-.28.66,1,1,0,0,1-.71.25h-8.64v-1.65h8.58l-.88.58a4.24,4.24,0,0,0-.43-1.85,3.18,3.18,0,0,0-1.16-1.3,3.4,3.4,0,0,0-1.82-.47,4,4,0,0,0-2.09.51,3.41,3.41,0,0,0-1.32,1.42,4.5,4.5,0,0,0-.45,2,3.79,3.79,0,0,0,2,3.44,4.52,4.52,0,0,0,2.17.51,4.15,4.15,0,0,0,1.36-.24,4.25,4.25,0,0,0,1.13-.54,1.21,1.21,0,0,1,.7-.24.9.9,0,0,1,.65.22,1,1,0,0,1,.39.68.72.72,0,0,1-.35.64,5.9,5.9,0,0,1-1.81.91A6.81,6.81,0,0,1,186.19,391.47Z" transform="translate(-70.97 -290.4)"/><path class="cls-8" d="M205.82,391.6a8.17,8.17,0,0,1-2.62-.42A6.59,6.59,0,0,1,201,390a4.46,4.46,0,0,1-1.35-1.71.78.78,0,0,1,0-.81,1.06,1.06,0,0,1,.76-.48,1.13,1.13,0,0,1,.76.12,1.26,1.26,0,0,1,.57.59,2.67,2.67,0,0,0,.85.95,4.83,4.83,0,0,0,1.42.7,5.73,5.73,0,0,0,1.76.27,5.53,5.53,0,0,0,1.9-.31,3.5,3.5,0,0,0,1.41-.9,2.11,2.11,0,0,0,.53-1.46,2.65,2.65,0,0,0-.89-2,4.83,4.83,0,0,0-2.93-1.08,7.56,7.56,0,0,1-4.18-1.51,3.88,3.88,0,0,1-1.52-3.12,3.47,3.47,0,0,1,.79-2.32,4.89,4.89,0,0,1,2.16-1.45,8.79,8.79,0,0,1,3-.5,6.89,6.89,0,0,1,2.29.35,5.37,5.37,0,0,1,1.7,1,6.23,6.23,0,0,1,1.27,1.47,1.28,1.28,0,0,1,.25.85.9.9,0,0,1-.42.64,1,1,0,0,1-.88.1,1.22,1.22,0,0,1-.71-.54,3.62,3.62,0,0,0-.84-1,3.46,3.46,0,0,0-1.16-.65,4.57,4.57,0,0,0-1.56-.24,5.16,5.16,0,0,0-2.66.57,1.92,1.92,0,0,0-1.08,1.81,2.36,2.36,0,0,0,.34,1.19,2.66,2.66,0,0,0,1.22,1,8.09,8.09,0,0,0,2.56.58,6.79,6.79,0,0,1,4,1.5,4.14,4.14,0,0,1,1.43,3.3,4.07,4.07,0,0,1-.5,2.05,4.7,4.7,0,0,1-1.35,1.46,6.37,6.37,0,0,1-1.94.88A8.76,8.76,0,0,1,205.82,391.6Z" transform="translate(-70.97 -290.4)"/><path class="cls-8" d="M216.14,396.23a1.09,1.09,0,0,1-.78-.3,1,1,0,0,1-.31-.75v-9.44a5.82,5.82,0,0,1,.79-2.94,5.76,5.76,0,0,1,2.1-2.06,6.44,6.44,0,0,1,6,0,5.82,5.82,0,0,1,2.12,2.06,5.62,5.62,0,0,1,.78,2.94,5.92,5.92,0,0,1-.72,2.93,5.51,5.51,0,0,1-2,2.05,5.5,5.5,0,0,1-6.95-1.13v5.59a1,1,0,0,1-.3.75A1.09,1.09,0,0,1,216.14,396.23Zm4.81-6.62a3.73,3.73,0,0,0,3.31-1.89,3.89,3.89,0,0,0,.51-2,3.94,3.94,0,0,0-.51-2,3.88,3.88,0,0,0-5.25-1.38,3.7,3.7,0,0,0-1.37,1.38,4,4,0,0,0-.49,2,4,4,0,0,0,.49,2A3.7,3.7,0,0,0,219,389.1,3.75,3.75,0,0,0,221,389.61Z" transform="translate(-70.97 -290.4)"/><path class="cls-8" d="M231.44,378.23a1.42,1.42,0,0,1-1-.4,1.32,1.32,0,0,1,0-1.93,1.45,1.45,0,0,1,2,0,1.32,1.32,0,0,1,0,1.93A1.42,1.42,0,0,1,231.44,378.23Zm0,13.16a1.06,1.06,0,0,1-.78-.3,1,1,0,0,1-.31-.76v-9.2a1,1,0,0,1,.31-.77,1.21,1.21,0,0,1,1.57,0,1,1,0,0,1,.3.77v9.2a1,1,0,0,1-.3.76A1.06,1.06,0,0,1,231.44,391.39Z" transform="translate(-70.97 -290.4)"/><path class="cls-8" d="M237.68,391.39a1.12,1.12,0,0,1-.79-.26,1,1,0,0,1-.28-.78v-9.24a1,1,0,0,1,.28-.77,1.08,1.08,0,0,1,.79-.27,1.14,1.14,0,0,1,.81.26,1,1,0,0,1,.27.78v9.24a1,1,0,0,1-.27.77A1.1,1.1,0,0,1,237.68,391.39Zm0-7.08a4,4,0,0,1,.63-2.22,4.51,4.51,0,0,1,1.71-1.56,4.85,4.85,0,0,1,2.36-.58,3.62,3.62,0,0,1,1.92.4.84.84,0,0,1,.48,1,.79.79,0,0,1-.24.45.81.81,0,0,1-.42.19,1.32,1.32,0,0,1-.52,0,6.21,6.21,0,0,0-2.46,0,3.4,3.4,0,0,0-1.73.85,2.11,2.11,0,0,0-.63,1.57Z" transform="translate(-70.97 -290.4)"/><path class="cls-8" d="M248.35,378.23a1.42,1.42,0,0,1-1-.4,1.32,1.32,0,0,1,0-1.93,1.44,1.44,0,0,1,2,0,1.32,1.32,0,0,1,0,1.93A1.42,1.42,0,0,1,248.35,378.23Zm0,13.16a1.09,1.09,0,0,1-.79-.3,1,1,0,0,1-.31-.76v-9.2a1,1,0,0,1,.31-.77,1.13,1.13,0,0,1,.79-.29,1.1,1.1,0,0,1,.79.29,1,1,0,0,1,.3.77v9.2a1,1,0,0,1-.3.76A1.06,1.06,0,0,1,248.35,391.39Z" transform="translate(-70.97 -290.4)"/><path class="cls-8" d="M253,382.26a1.09,1.09,0,0,1-.73-.24.83.83,0,0,1-.27-.62.87.87,0,0,1,.27-.67,1.09,1.09,0,0,1,.73-.25h5a1.09,1.09,0,0,1,.73.25.85.85,0,0,1,.28.67.8.8,0,0,1-.28.62,1.09,1.09,0,0,1-.73.24Zm4.77,9.13a3.61,3.61,0,0,1-1.93-.53,3.7,3.7,0,0,1-1.36-1.44,4.19,4.19,0,0,1-.49-2V377.5a1,1,0,0,1,.3-.74,1.18,1.18,0,0,1,1.55,0,1,1,0,0,1,.3.74v9.88a2,2,0,0,0,.47,1.38,1.46,1.46,0,0,0,1.16.56h.73a.87.87,0,0,1,.65.29,1,1,0,0,1,.27.74.91.91,0,0,1-.36.75,1.4,1.4,0,0,1-.91.29Z" transform="translate(-70.97 -290.4)"/><path class="cls-8" d="M273.73,391.47a6.25,6.25,0,0,1-3.07-.73,5.44,5.44,0,0,1-2.09-2,6.22,6.22,0,0,1,0-6,5.44,5.44,0,0,1,2.09-2,6.25,6.25,0,0,1,3.07-.73,6.16,6.16,0,0,1,3,.73,5.46,5.46,0,0,1,2.1,2,6.26,6.26,0,0,1,0,6,5.41,5.41,0,0,1-2.08,2A6.25,6.25,0,0,1,273.73,391.47Zm0-1.86a3.87,3.87,0,0,0,2-.5,3.5,3.5,0,0,0,1.34-1.36,4.1,4.1,0,0,0,.49-2,4.16,4.16,0,0,0-.49-2,3.53,3.53,0,0,0-1.34-1.37,4.15,4.15,0,0,0-3.95,0,3.62,3.62,0,0,0-1.35,1.37,4.06,4.06,0,0,0-.49,2,4,4,0,0,0,.49,2,3.6,3.6,0,0,0,1.35,1.36A3.91,3.91,0,0,0,273.73,389.61Z" transform="translate(-70.97 -290.4)"/><path class="cls-8" d="M282.18,382.26a1.09,1.09,0,0,1-.73-.24.84.84,0,0,1-.28-.62.88.88,0,0,1,.28-.67,1.09,1.09,0,0,1,.73-.25h5.3a1.09,1.09,0,0,1,.73.25.85.85,0,0,1,.28.67.8.8,0,0,1-.28.62,1.09,1.09,0,0,1-.73.24Zm2,9.13a1,1,0,0,1-.72-.29,1,1,0,0,1-.33-.77v-10.2a5.29,5.29,0,0,1,.61-2.58,4.39,4.39,0,0,1,1.71-1.71,5.07,5.07,0,0,1,2.53-.61,1.17,1.17,0,0,1,.79.27.87.87,0,0,1,.31.68.88.88,0,0,1-.31.67,1.12,1.12,0,0,1-.79.28,2.73,2.73,0,0,0-1.39.35,2.53,2.53,0,0,0-.94,1,3.07,3.07,0,0,0-.33,1.47v10.4a1,1,0,0,1-.3.77A1.17,1.17,0,0,1,284.15,391.39Z" transform="translate(-70.97 -290.4)"/><path class="cls-8" d="M298.38,391.39a1.06,1.06,0,0,1-.79-.31,1,1,0,0,1-.33-.77v-14a1,1,0,0,1,.33-.77,1.16,1.16,0,0,1,1.78.28l6.71,13h-.68l6.54-13a1.08,1.08,0,0,1,1-.58,1.11,1.11,0,0,1,.79.3,1,1,0,0,1,.32.77v14a1,1,0,0,1-.33.77,1.09,1.09,0,0,1-.78.31,1.1,1.1,0,0,1-.8-.31,1,1,0,0,1-.32-.77v-11l.43-.1-5.62,11.05a1.12,1.12,0,0,1-1,.54,1.09,1.09,0,0,1-1-.64l-5.55-10.74.43-.11v11a1,1,0,0,1-.33.77A1.08,1.08,0,0,1,298.38,391.39Z" transform="translate(-70.97 -290.4)"/><path class="cls-8" d="M323,391.47a5.35,5.35,0,0,1-2.81-.75,5.51,5.51,0,0,1-2-2.05,5.92,5.92,0,0,1-.72-2.93,5.62,5.62,0,0,1,.78-2.94,5.69,5.69,0,0,1,2.13-2.06,6.06,6.06,0,0,1,3-.75,6,6,0,0,1,3,.75,5.74,5.74,0,0,1,2.12,2.06,5.62,5.62,0,0,1,.78,2.94h-.84a6,6,0,0,1-.71,2.93,5.54,5.54,0,0,1-2,2.05A5.32,5.32,0,0,1,323,391.47Zm.43-1.86a3.73,3.73,0,0,0,1.95-.51,3.65,3.65,0,0,0,1.35-1.38,4,4,0,0,0,.5-2,4,4,0,0,0-.5-2,3.65,3.65,0,0,0-1.35-1.38,3.83,3.83,0,0,0-5.26,1.38,3.94,3.94,0,0,0-.51,2,3.89,3.89,0,0,0,.51,2,3.7,3.7,0,0,0,1.37,1.38A3.75,3.75,0,0,0,323.44,389.61Zm4.81,1.8a1.09,1.09,0,0,1-.79-.3,1,1,0,0,1-.31-.76v-3.16l.41-2.19,1.78.74v4.61a1,1,0,0,1-.31.76A1.09,1.09,0,0,1,328.25,391.41Z" transform="translate(-70.97 -290.4)"/><path class="cls-8" d="M333.7,391.41a1.09,1.09,0,0,1-.79-.3,1,1,0,0,1-.31-.76v-9.2a1,1,0,0,1,.31-.77,1.13,1.13,0,0,1,.79-.29,1.1,1.1,0,0,1,.79.29,1,1,0,0,1,.3.77v9.2a1,1,0,0,1-.3.76A1.06,1.06,0,0,1,333.7,391.41Zm7.16,0a1.09,1.09,0,0,1-.78-.3,1,1,0,0,1-.31-.76v-5.91a2.54,2.54,0,0,0-.67-1.94,2.41,2.41,0,0,0-1.73-.63,2.47,2.47,0,0,0-1.85.75,2.58,2.58,0,0,0-.73,1.9h-1.35a4.77,4.77,0,0,1,.56-2.37,4,4,0,0,1,1.54-1.6,4.34,4.34,0,0,1,2.25-.58,4.49,4.49,0,0,1,2.17.51,3.62,3.62,0,0,1,1.47,1.53,5.13,5.13,0,0,1,.53,2.43v5.91a1,1,0,0,1-.3.76A1.09,1.09,0,0,1,340.86,391.41Zm7.15,0a1.09,1.09,0,0,1-.79-.3,1,1,0,0,1-.31-.76v-5.91a2.57,2.57,0,0,0-.66-1.94,2.67,2.67,0,0,0-3.58.12,2.65,2.65,0,0,0-.71,1.9h-1.78a4.59,4.59,0,0,1,.6-2.37,4.18,4.18,0,0,1,1.68-1.6,5.13,5.13,0,0,1,2.48-.58,4.52,4.52,0,0,1,2.17.51,3.68,3.68,0,0,1,1.47,1.53,5.14,5.14,0,0,1,.52,2.43v5.91a1,1,0,0,1-.3.76A1.06,1.06,0,0,1,348,391.41Z" transform="translate(-70.97 -290.4)"/><path class="cls-8" d="M353.82,391.41a1.09,1.09,0,0,1-.78-.3,1,1,0,0,1-.31-.76v-9.2a1,1,0,0,1,.31-.77,1.12,1.12,0,0,1,.78-.29,1.14,1.14,0,0,1,.8.29,1,1,0,0,1,.3.77v9.2a1,1,0,0,1-.3.76A1.1,1.1,0,0,1,353.82,391.41Zm7.17,0a1.09,1.09,0,0,1-.79-.3,1,1,0,0,1-.31-.76v-5.91a2.57,2.57,0,0,0-.66-1.94,2.43,2.43,0,0,0-1.74-.63,2.49,2.49,0,0,0-1.85.75,2.61,2.61,0,0,0-.72,1.9h-1.36a4.88,4.88,0,0,1,.56-2.37,4,4,0,0,1,1.55-1.6,4.31,4.31,0,0,1,2.25-.58,4.52,4.52,0,0,1,2.17.51,3.62,3.62,0,0,1,1.47,1.53,5.14,5.14,0,0,1,.52,2.43v5.91a1,1,0,0,1-.3.76A1.06,1.06,0,0,1,361,391.41Zm7.14,0a1.09,1.09,0,0,1-.78-.3,1,1,0,0,1-.31-.76v-5.91a2.54,2.54,0,0,0-.67-1.94,2.66,2.66,0,0,0-3.57.12,2.61,2.61,0,0,0-.72,1.9H360.3a4.59,4.59,0,0,1,.6-2.37,4.14,4.14,0,0,1,1.69-1.6,5.09,5.09,0,0,1,2.47-.58,4.49,4.49,0,0,1,2.17.51A3.62,3.62,0,0,1,368.7,382a5.13,5.13,0,0,1,.53,2.43v5.91a1,1,0,0,1-.3.76A1.09,1.09,0,0,1,368.13,391.41Z" transform="translate(-70.97 -290.4)"/><path class="cls-8" d="M377.74,391.47a5.35,5.35,0,0,1-2.81-.75,5.51,5.51,0,0,1-2-2.05,5.92,5.92,0,0,1-.72-2.93,5.62,5.62,0,0,1,.78-2.94,5.77,5.77,0,0,1,2.13-2.06,6.42,6.42,0,0,1,6,0,5.79,5.79,0,0,1,2.11,2.06,5.62,5.62,0,0,1,.78,2.94h-.83a5.92,5.92,0,0,1-.72,2.93,5.54,5.54,0,0,1-2,2.05A5.32,5.32,0,0,1,377.74,391.47Zm.43-1.86a3.79,3.79,0,0,0,2-.51,3.72,3.72,0,0,0,1.35-1.38,4,4,0,0,0,.49-2,4,4,0,0,0-.49-2,3.72,3.72,0,0,0-1.35-1.38,4,4,0,0,0-3.9,0,3.7,3.7,0,0,0-1.37,1.38,3.94,3.94,0,0,0-.51,2,3.89,3.89,0,0,0,.51,2,3.7,3.7,0,0,0,1.37,1.38A3.77,3.77,0,0,0,378.17,389.61Zm4.81,1.8a1.06,1.06,0,0,1-.78-.3,1,1,0,0,1-.32-.76v-3.16l.41-2.19,1.78.74v4.61a1,1,0,0,1-.31.76A1.09,1.09,0,0,1,383,391.41Z" transform="translate(-70.97 -290.4)"/><path class="cls-8" d="M386,381a.58.58,0,0,1-.53-.3.64.64,0,0,1,0-.63,5.65,5.65,0,0,0,.47-1.39,2.65,2.65,0,0,0,0-.93q-.07-.39-.18-.75a3,3,0,0,1-.11-.82,1.15,1.15,0,0,1,.39-.89,1.32,1.32,0,0,1,.92-.35,1.17,1.17,0,0,1,1,.54,2.35,2.35,0,0,1,.36,1.34,3.86,3.86,0,0,1-.23,1.24,10.41,10.41,0,0,1-.59,1.38,5.6,5.6,0,0,1-.76,1.12A1.16,1.16,0,0,1,386,381Z" transform="translate(-70.97 -290.4)"/><path class="cls-8" d="M395.64,391.47a8.57,8.57,0,0,1-2.78-.44,5.6,5.6,0,0,1-2-1.13.88.88,0,0,1-.26-.76,1,1,0,0,1,.41-.69,1.18,1.18,0,0,1,.85-.28,1.24,1.24,0,0,1,.72.36,3.28,3.28,0,0,0,1.17.74,4.5,4.5,0,0,0,1.79.34,3.77,3.77,0,0,0,1.9-.39,1.17,1.17,0,0,0,.06-2.09,6,6,0,0,0-2.3-.75,6.92,6.92,0,0,1-3.15-1.24,2.56,2.56,0,0,1-1-2,2.49,2.49,0,0,1,.64-1.75,4,4,0,0,1,1.65-1,6.52,6.52,0,0,1,2.11-.34,6.77,6.77,0,0,1,2.51.43,4.3,4.3,0,0,1,1.74,1.2.91.91,0,0,1,.27.7.78.78,0,0,1-.36.61,1.08,1.08,0,0,1-.82.14,1.53,1.53,0,0,1-.79-.37,2.89,2.89,0,0,0-1.16-.68,4.79,4.79,0,0,0-1.44-.19,3.61,3.61,0,0,0-1.59.31,1,1,0,0,0-.66.91,1.13,1.13,0,0,0,.21.67,1.68,1.68,0,0,0,.8.54,11.36,11.36,0,0,0,1.76.47,9.84,9.84,0,0,1,2.54.78,3.39,3.39,0,0,1,1.34,1.11,2.65,2.65,0,0,1,.41,1.46,2.92,2.92,0,0,1-.53,1.72,3.62,3.62,0,0,1-1.54,1.22A6.31,6.31,0,0,1,395.64,391.47Z" transform="translate(-70.97 -290.4)"/><path class="cls-8" d="M410.61,391.39a1.06,1.06,0,0,1-.78-.31,1,1,0,0,1-.31-.77v-14a1,1,0,0,1,.32-.76,1,1,0,0,1,.77-.31,1.1,1.1,0,0,1,.8.31,1,1,0,0,1,.32.76v12.94h7.77a1.09,1.09,0,0,1,.79.31,1,1,0,0,1,.32.76,1,1,0,0,1-.32.77,1.09,1.09,0,0,1-.79.31Z" transform="translate(-70.97 -290.4)"/><path class="cls-8" d="M428.4,391.47a6.25,6.25,0,0,1-3.07-.73,5.44,5.44,0,0,1-2.09-2,6.22,6.22,0,0,1,0-6,5.44,5.44,0,0,1,2.09-2,6.78,6.78,0,0,1,6.12,0,5.51,5.51,0,0,1,2.09,2,6.26,6.26,0,0,1,0,6,5.41,5.41,0,0,1-2.08,2A6.25,6.25,0,0,1,428.4,391.47Zm0-1.86a3.87,3.87,0,0,0,2-.5,3.44,3.44,0,0,0,1.34-1.36,4,4,0,0,0,.49-2,4.06,4.06,0,0,0-.49-2,3.46,3.46,0,0,0-1.34-1.37,4.13,4.13,0,0,0-3.94,0,3.58,3.58,0,0,0-1.36,1.37,4.06,4.06,0,0,0-.49,2,4,4,0,0,0,.49,2,3.55,3.55,0,0,0,1.36,1.36A3.87,3.87,0,0,0,428.4,389.61Z" transform="translate(-70.97 -290.4)"/><path class="cls-8" d="M440.89,391.37a1.12,1.12,0,0,1-1-.68l-4.55-9.25a.79.79,0,0,1,0-.7,1,1,0,0,1,.54-.52.92.92,0,0,1,.74-.07,1,1,0,0,1,.57.48l4.25,8.83h-1l4.21-8.83a1,1,0,0,1,.59-.48,1.07,1.07,0,0,1,.8.07.86.86,0,0,1,.51.51.84.84,0,0,1,0,.71l-4.55,9.25A1,1,0,0,1,440.89,391.37Z" transform="translate(-70.97 -290.4)"/><path class="cls-8" d="M453.76,391.47a6.61,6.61,0,0,1-3.16-.73,5.45,5.45,0,0,1-2.17-2,5.63,5.63,0,0,1-.78-3,5.84,5.84,0,0,1,.74-3,5.31,5.31,0,0,1,2-2,6.07,6.07,0,0,1,3-.73,5.58,5.58,0,0,1,2.87.71,4.73,4.73,0,0,1,1.84,2,6.3,6.3,0,0,1,.63,2.88.85.85,0,0,1-.28.66,1,1,0,0,1-.71.25h-8.64v-1.65h8.58l-.88.58a4.24,4.24,0,0,0-.43-1.85,3.18,3.18,0,0,0-1.16-1.3,3.4,3.4,0,0,0-1.82-.47,4,4,0,0,0-2.09.51A3.41,3.41,0,0,0,450,383.7a4.5,4.5,0,0,0-.45,2,3.82,3.82,0,0,0,.53,2,3.94,3.94,0,0,0,1.48,1.41,4.52,4.52,0,0,0,2.17.51,4.15,4.15,0,0,0,1.36-.24,4.25,4.25,0,0,0,1.13-.54,1.21,1.21,0,0,1,.7-.24.89.89,0,0,1,.65.22,1,1,0,0,1,.39.68.72.72,0,0,1-.35.64,5.9,5.9,0,0,1-1.81.91A6.81,6.81,0,0,1,453.76,391.47Z" transform="translate(-70.97 -290.4)"/></svg>